<?xml version="1.0" encoding="UTF-8" ?>
<!DOCTYPE svg PUBLIC "-//W3C//DTD SVG 1.1//EN" "http://www.w3.org/Graphics/SVG/1.1/DTD/svg11.dtd">
<svg width="71pt" height="70pt" viewBox="0 0 71 70" version="1.1" xmlns="http://www.w3.org/2000/svg">
<g id="#feffffff">
<path fill="#feffff" opacity="1.00" d=" M 23.18 23.66 C 31.06 23.43 38.94 23.43 46.82 23.67 C 46.83 31.55 46.79 39.44 46.85 47.32 C 45.46 47.38 44.07 47.42 42.68 47.47 C 42.59 45.02 42.53 42.58 42.47 40.14 C 37.51 39.67 32.50 39.66 27.54 40.16 C 27.48 42.59 27.41 45.02 27.32 47.46 C 25.93 47.42 24.54 47.37 23.14 47.32 C 23.22 39.43 23.18 31.55 23.18 23.66 M 27.55 27.90 C 27.89 30.28 26.59 33.53 28.27 35.36 C 33.01 35.87 37.79 35.43 42.55 35.52 C 42.55 33.07 42.56 30.61 42.58 28.16 C 37.58 27.68 32.56 27.71 27.55 27.90 Z" />
</g>
<g id="#4b505dff">
<path fill="#4b505d" opacity="1.00" d=" M 3.59 1.32 C 5.05 1.11 6.53 1.00 8.01 0.98 C 25.69 1.02 43.36 1.02 61.04 0.97 C 62.84 0.97 64.64 1.06 66.42 1.32 C 60.78 1.52 55.11 1.55 49.56 2.67 C 49.83 5.23 50.07 7.79 50.36 10.35 C 52.93 11.12 55.53 11.80 58.11 12.53 C 58.76 14.99 59.17 17.57 60.37 19.84 C 62.96 21.65 66.26 20.00 69.02 19.45 C 68.99 30.15 68.99 40.85 69.01 51.55 C 66.23 50.99 62.98 49.42 60.34 51.12 C 59.19 53.41 58.77 55.97 58.13 58.42 C 55.58 59.12 52.94 59.64 50.57 60.85 C 49.47 63.36 50.05 66.21 49.98 68.86 C 55.44 69.42 60.93 69.51 66.41 69.47 L 65.68 70.00 L 4.34 70.00 L 3.61 69.47 C 9.24 69.63 14.91 69.55 20.43 68.31 C 20.17 65.75 19.94 63.18 19.66 60.63 C 17.08 59.88 14.47 59.20 11.88 58.48 C 11.24 56.01 10.84 53.44 9.65 51.16 C 7.03 49.31 3.75 50.90 0.98 51.55 C 1.02 40.85 1.02 30.15 0.98 19.46 C 3.74 20.10 7.03 21.68 9.62 19.80 C 10.81 17.56 11.26 15.04 11.93 12.63 C 14.58 11.78 17.42 11.20 19.74 9.58 C 20.25 7.31 20.32 4.98 20.51 2.67 C 14.95 1.51 9.25 1.47 3.59 1.32 M 22.36 19.42 C 19.23 20.40 18.39 24.04 18.53 26.94 C 18.65 33.62 18.23 40.33 18.75 46.99 C 19.19 52.74 28.57 54.25 30.78 49.01 C 32.01 46.94 33.11 43.20 36.27 44.51 C 38.52 46.41 38.88 49.96 41.43 51.60 C 44.94 52.97 50.03 51.99 51.08 47.86 C 51.96 41.96 51.23 35.94 51.50 29.99 C 51.44 26.43 52.00 21.73 48.35 19.66 C 44.71 18.45 40.77 19.04 37.00 18.94 C 32.12 19.11 27.18 18.50 22.36 19.42 Z" />
</g>
<g id="#8a8c94ff">
<path fill="#8a8c94" opacity="1.00" d=" M 1.12 6.09 C 1.10 4.17 2.54 2.77 3.59 1.32 C 9.25 1.47 14.95 1.51 20.51 2.67 C 20.32 4.98 20.25 7.31 19.74 9.58 C 17.42 11.20 14.58 11.78 11.93 12.63 C 11.26 15.04 10.81 17.56 9.62 19.80 C 7.03 21.68 3.74 20.10 0.98 19.46 C 1.03 15.00 0.78 10.53 1.12 6.09 M 4.99 4.17 C 2.59 8.20 3.74 13.01 3.62 17.45 C 5.01 17.43 6.39 17.40 7.78 17.37 C 7.81 14.40 7.94 11.44 8.13 8.47 C 11.05 8.48 13.96 8.43 16.87 8.36 C 16.85 6.97 16.83 5.57 16.81 4.18 C 12.87 4.21 8.93 4.19 4.99 4.17 Z" />
<path fill="#8a8c94" opacity="1.00" d=" M 49.56 2.67 C 55.11 1.55 60.78 1.52 66.42 1.32 C 67.46 2.77 68.91 4.17 68.89 6.08 C 69.23 10.53 68.97 14.99 69.02 19.45 C 66.26 20.00 62.96 21.65 60.37 19.84 C 59.17 17.57 58.76 14.99 58.11 12.53 C 55.53 11.80 52.93 11.12 50.36 10.35 C 50.07 7.79 49.83 5.23 49.56 2.67 M 53.11 4.23 C 53.14 5.64 53.18 7.04 53.21 8.44 C 56.18 8.45 59.16 8.49 62.13 8.57 C 62.17 11.50 62.19 14.43 62.17 17.36 C 63.57 17.40 64.98 17.43 66.38 17.46 C 66.21 13.03 67.48 8.14 64.93 4.18 C 60.99 4.15 57.05 4.21 53.11 4.23 Z" />
<path fill="#8a8c94" opacity="1.00" d=" M 22.36 19.42 C 27.18 18.50 32.12 19.11 37.00 18.94 C 40.77 19.04 44.71 18.45 48.35 19.66 C 52.00 21.73 51.44 26.43 51.50 29.99 C 51.23 35.94 51.96 41.96 51.08 47.86 C 50.03 51.99 44.94 52.97 41.43 51.60 C 38.88 49.96 38.52 46.41 36.27 44.51 C 33.11 43.20 32.01 46.94 30.78 49.01 C 28.57 54.25 19.19 52.74 18.75 46.99 C 18.23 40.33 18.65 33.62 18.53 26.94 C 18.39 24.04 19.23 20.40 22.36 19.42 M 23.18 23.66 C 23.18 31.55 23.22 39.43 23.14 47.32 C 24.54 47.37 25.93 47.42 27.32 47.46 C 27.41 45.02 27.48 42.59 27.54 40.16 C 32.50 39.66 37.51 39.67 42.47 40.14 C 42.53 42.58 42.59 45.02 42.68 47.47 C 44.07 47.42 45.46 47.38 46.85 47.32 C 46.79 39.44 46.83 31.55 46.82 23.67 C 38.94 23.43 31.06 23.43 23.18 23.66 Z" />
<path fill="#8a8c94" opacity="1.00" d=" M 27.55 27.90 C 32.56 27.71 37.58 27.68 42.58 28.16 C 42.56 30.61 42.55 33.07 42.55 35.52 C 37.79 35.43 33.01 35.87 28.27 35.36 C 26.59 33.53 27.89 30.28 27.55 27.90 Z" />
<path fill="#8a8c94" opacity="1.00" d=" M 0.98 51.55 C 3.75 50.90 7.03 49.31 9.65 51.16 C 10.84 53.44 11.24 56.01 11.88 58.48 C 14.47 59.20 17.08 59.88 19.66 60.63 C 19.94 63.18 20.17 65.75 20.43 68.31 C 14.91 69.55 9.24 69.63 3.61 69.47 C 2.52 68.13 1.03 66.80 1.11 64.91 C 0.78 60.47 1.02 56.00 0.98 51.55 M 3.61 53.54 C 3.78 57.96 2.53 62.85 5.07 66.81 C 8.98 66.84 12.88 66.77 16.78 66.81 C 16.82 65.42 16.85 64.04 16.89 62.65 C 13.96 62.58 11.04 62.53 8.12 62.52 C 7.91 59.56 7.81 56.60 7.77 53.63 C 6.39 53.60 5.00 53.56 3.61 53.54 Z" />
<path fill="#8a8c94" opacity="1.00" d=" M 60.34 51.12 C 62.98 49.42 66.23 50.99 69.01 51.55 C 68.97 56.00 69.20 60.46 68.88 64.91 C 68.95 66.79 67.49 68.13 66.41 69.47 C 60.93 69.51 55.44 69.42 49.98 68.86 C 50.05 66.21 49.47 63.36 50.57 60.85 C 52.94 59.64 55.58 59.12 58.13 58.42 C 58.77 55.97 59.19 53.41 60.34 51.12 M 62.24 53.68 C 62.19 56.63 62.01 59.58 61.81 62.52 C 58.92 62.52 56.02 62.57 53.13 62.64 C 53.15 64.03 53.17 65.43 53.20 66.83 C 57.13 66.81 61.06 66.84 64.99 66.84 C 67.41 62.79 66.24 57.97 66.37 53.51 C 64.99 53.56 63.61 53.62 62.24 53.68 Z" />
</g>
<g id="#000002ff">
<path fill="#000002" opacity="1.00" d=" M 4.99 4.17 C 8.93 4.19 12.87 4.21 16.81 4.18 C 16.83 5.57 16.85 6.97 16.87 8.36 C 13.96 8.43 11.05 8.48 8.13 8.47 C 7.94 11.44 7.81 14.40 7.78 17.37 C 6.39 17.40 5.01 17.43 3.62 17.45 C 3.74 13.01 2.59 8.20 4.99 4.17 Z" />
<path fill="#000002" opacity="1.00" d=" M 53.11 4.23 C 57.05 4.21 60.99 4.15 64.93 4.18 C 67.48 8.14 66.21 13.03 66.38 17.46 C 64.98 17.43 63.57 17.40 62.17 17.36 C 62.19 14.43 62.17 11.50 62.13 8.57 C 59.16 8.49 56.18 8.45 53.21 8.44 C 53.18 7.04 53.14 5.64 53.11 4.23 Z" />
<path fill="#000002" opacity="1.00" d=" M 3.61 53.54 C 5.00 53.56 6.39 53.60 7.77 53.63 C 7.81 56.60 7.91 59.56 8.12 62.52 C 11.04 62.53 13.96 62.58 16.89 62.65 C 16.85 64.04 16.82 65.42 16.78 66.81 C 12.88 66.77 8.98 66.84 5.07 66.81 C 2.53 62.85 3.78 57.96 3.61 53.54 Z" />
<path fill="#000002" opacity="1.00" d=" M 62.24 53.68 C 63.61 53.62 64.99 53.56 66.37 53.51 C 66.24 57.97 67.41 62.79 64.99 66.84 C 61.06 66.84 57.13 66.81 53.20 66.83 C 53.17 65.43 53.15 64.03 53.13 62.64 C 56.02 62.57 58.92 62.52 61.81 62.52 C 62.01 59.58 62.19 56.63 62.24 53.68 Z" />
</g>
</svg>
