<?xml version="1.0" encoding="UTF-8" ?>
<!DOCTYPE svg PUBLIC "-//W3C//DTD SVG 1.1//EN" "http://www.w3.org/Graphics/SVG/1.1/DTD/svg11.dtd">
<svg width="240pt" height="408pt" viewBox="0 0 240 408" version="1.1" xmlns="http://www.w3.org/2000/svg">
<g id="#94aad9ff">
<path fill="#94aad9" opacity="1.00" d=" M 101.78 21.74 C 102.96 20.87 104.56 21.33 105.92 21.18 C 118.80 21.34 131.69 20.97 144.55 21.35 C 148.15 24.48 153.19 22.01 157.34 23.80 C 160.74 23.82 163.43 26.15 166.81 26.14 C 170.91 26.55 174.18 29.37 178.28 29.84 C 183.12 30.55 186.31 34.72 190.79 36.28 C 194.09 38.17 197.26 40.36 199.84 43.18 C 201.52 45.32 204.71 45.44 206.14 47.88 C 208.73 53.36 214.47 57.04 215.80 63.20 C 216.12 65.24 217.47 66.83 218.30 68.67 C 219.39 70.66 218.48 73.21 219.84 75.11 C 221.35 77.28 220.58 80.12 221.40 82.54 C 223.20 88.02 220.25 94.32 223.73 99.29 C 223.53 104.27 225.02 109.78 222.06 114.17 C 221.45 121.80 223.07 129.65 220.95 137.11 C 220.23 141.20 222.08 145.86 219.36 149.43 C 218.33 152.97 219.76 156.92 218.35 160.45 C 216.62 165.24 219.56 171.02 216.06 175.21 C 215.92 182.10 215.95 189.00 216.07 195.89 C 217.02 199.29 217.02 202.83 217.62 206.30 C 218.30 211.59 216.91 217.10 218.81 222.23 C 219.36 228.73 218.73 235.28 219.06 241.79 C 221.66 244.61 220.68 248.52 220.83 252.01 C 220.83 268.33 220.81 284.66 220.84 300.99 C 221.33 303.61 218.42 305.33 218.99 307.96 C 219.66 313.33 217.43 318.35 217.69 323.69 C 215.54 327.58 215.44 332.13 214.44 336.39 C 210.42 346.65 205.71 357.01 198.39 365.39 C 195.90 369.77 191.50 372.54 188.40 376.42 C 187.53 378.38 186.55 380.53 184.49 381.50 C 179.99 383.35 177.66 388.07 173.45 390.38 C 169.01 394.00 163.30 395.42 158.47 398.42 C 153.24 400.40 148.10 402.63 142.50 403.40 C 139.54 405.64 135.74 404.23 132.45 405.36 C 129.07 406.48 125.48 405.87 122.00 406.00 C 117.57 405.85 113.02 406.57 108.74 405.12 C 105.60 404.25 102.02 405.71 99.19 403.73 C 95.71 402.39 91.69 402.56 88.43 400.54 C 83.96 399.14 79.74 397.14 75.33 395.64 C 67.60 389.63 58.44 385.49 51.56 378.41 C 49.35 377.50 47.01 376.21 46.18 373.80 C 45.76 372.37 44.59 371.44 43.53 370.50 C 35.41 363.30 31.17 353.10 26.48 343.58 C 25.58 340.80 25.34 337.76 23.79 335.22 C 22.16 331.77 22.55 327.68 20.57 324.38 C 19.81 320.28 18.60 316.24 19.00 312.02 C 19.39 310.25 18.15 308.96 17.33 307.56 C 16.92 302.66 17.72 297.64 16.06 292.90 C 15.89 281.92 16.09 270.93 15.98 259.95 C 15.86 257.83 16.31 255.76 16.88 253.74 C 17.85 248.08 16.46 242.17 17.54 236.58 C 20.48 232.79 17.94 227.76 19.64 223.56 C 21.02 219.69 18.91 215.08 21.94 211.79 C 22.28 208.34 21.55 204.80 22.46 201.42 C 23.63 197.72 23.06 193.80 23.17 189.99 C 23.00 185.24 23.78 180.35 22.25 175.74 C 21.57 170.26 22.32 164.69 21.94 159.17 C 18.23 153.63 21.66 146.61 19.45 140.59 C 18.34 134.21 19.41 127.65 18.94 121.21 C 18.24 119.81 16.88 118.64 17.18 116.92 C 17.21 101.05 17.07 85.16 17.25 69.29 C 18.26 67.39 19.14 65.46 19.15 63.26 C 21.95 56.60 27.89 51.94 32.84 46.83 C 38.23 43.30 43.64 39.65 48.98 36.05 C 53.25 34.83 57.15 32.67 61.43 31.47 C 64.63 29.56 68.61 29.73 71.81 27.78 C 75.23 26.65 78.93 26.37 82.43 25.54 C 85.01 23.54 88.45 24.45 91.39 23.40 C 94.78 22.23 98.86 24.22 101.78 21.74 M 103.60 34.37 C 82.14 37.29 60.04 42.37 42.27 55.40 C 36.50 60.16 30.03 65.91 29.67 73.96 C 29.46 85.63 29.58 97.32 29.60 109.00 C 29.45 114.02 30.95 118.92 30.71 123.94 C 30.35 132.03 32.90 139.91 32.56 148.00 C 32.39 152.03 33.73 155.92 33.70 159.94 C 33.23 169.70 36.26 179.23 35.53 189.01 C 36.23 199.78 33.63 210.31 32.52 220.96 C 31.20 231.28 29.48 241.58 29.40 252.00 C 28.86 257.34 27.39 262.60 27.75 268.00 C 28.03 276.07 27.05 284.23 28.69 292.21 C 29.83 297.18 29.15 302.35 30.30 307.32 C 32.52 321.23 35.77 335.24 42.54 347.73 C 50.36 362.78 63.57 374.51 78.40 382.45 C 90.99 389.91 105.64 392.59 119.97 394.28 C 123.75 394.46 127.40 393.27 131.10 392.77 C 142.91 391.56 154.28 387.31 164.40 381.20 C 174.09 375.26 181.63 366.52 188.57 357.66 C 194.26 350.60 198.69 342.53 201.59 333.94 C 206.04 321.09 207.22 307.45 208.42 294.01 C 208.45 280.67 208.45 267.32 208.36 253.98 C 208.39 248.95 207.27 244.02 206.79 239.03 C 206.29 232.93 207.10 226.73 205.84 220.70 C 205.08 215.85 205.69 210.93 205.28 206.06 C 205.15 203.80 202.77 202.24 203.01 199.94 C 204.17 191.68 203.03 183.30 203.86 175.03 C 204.51 171.70 204.59 168.31 204.94 164.94 C 207.03 153.00 207.76 140.88 209.45 128.88 C 209.47 122.88 210.03 116.92 210.94 110.99 C 211.92 105.96 210.63 100.94 210.41 95.91 C 210.43 87.68 208.56 79.54 205.86 71.80 C 201.75 59.68 191.73 50.37 180.47 44.76 C 166.98 38.04 151.93 35.20 137.06 33.56 C 125.92 33.75 114.66 32.73 103.60 34.37 Z" />
<path fill="#94aad9" opacity="1.00" d=" M 142.63 53.02 C 152.54 54.09 162.33 56.56 171.62 60.17 C 181.10 63.95 190.14 69.68 195.96 78.25 C 197.28 80.10 196.61 82.48 196.39 84.56 C 194.46 93.63 196.76 103.04 194.75 112.10 C 194.01 117.05 194.60 122.07 194.25 127.04 C 193.93 130.81 192.67 134.45 192.63 138.24 C 192.52 141.68 192.88 145.17 192.05 148.55 C 190.81 153.35 191.83 158.41 190.57 163.21 C 189.62 166.84 189.32 170.59 189.57 174.33 C 183.03 174.50 176.52 175.00 169.99 174.28 C 159.86 172.82 150.37 168.67 141.13 164.48 C 141.45 156.64 142.59 148.86 142.47 141.00 C 142.73 111.68 142.77 82.35 142.63 53.02 Z" />
<path fill="#94aad9" opacity="1.00" d=" M 118.58 72.68 C 120.25 71.63 122.20 73.42 123.35 74.59 C 127.90 80.60 129.23 88.33 129.94 95.66 C 131.12 102.16 131.16 108.84 130.02 115.35 C 129.09 123.07 128.17 131.76 122.48 137.61 C 119.82 140.45 116.38 137.50 114.89 134.98 C 111.34 128.97 109.82 121.91 109.52 114.99 C 109.07 111.01 108.03 107.05 108.59 103.01 C 109.86 95.88 109.61 88.45 112.41 81.64 C 113.60 78.18 115.42 74.72 118.58 72.68 Z" />
</g>
<g id="#01081aff">
<path fill="#01081a" opacity="1.00" d=" M 103.60 34.37 C 114.66 32.73 125.92 33.75 137.06 33.56 C 151.93 35.20 166.98 38.04 180.47 44.76 C 191.73 50.37 201.75 59.68 205.86 71.80 C 208.56 79.54 210.43 87.68 210.41 95.91 C 210.63 100.94 211.92 105.96 210.94 110.99 C 210.03 116.92 209.47 122.88 209.45 128.88 C 207.76 140.88 207.03 153.00 204.94 164.94 C 204.59 168.31 204.51 171.70 203.86 175.03 C 203.03 183.30 204.17 191.68 203.01 199.94 C 202.77 202.24 205.15 203.80 205.28 206.06 C 205.69 210.93 205.08 215.85 205.84 220.70 C 207.10 226.73 206.29 232.93 206.79 239.03 C 207.27 244.02 208.39 248.95 208.36 253.98 C 208.45 267.32 208.45 280.67 208.42 294.01 C 207.22 307.45 206.04 321.09 201.59 333.94 C 198.69 342.53 194.26 350.60 188.57 357.66 C 181.63 366.52 174.09 375.26 164.40 381.20 C 154.28 387.31 142.91 391.56 131.10 392.77 C 127.40 393.27 123.75 394.46 119.97 394.28 C 105.64 392.59 90.99 389.91 78.40 382.45 C 63.57 374.51 50.36 362.78 42.54 347.73 C 35.77 335.24 32.52 321.23 30.30 307.32 C 29.15 302.35 29.83 297.18 28.69 292.21 C 27.05 284.23 28.03 276.07 27.75 268.00 C 27.39 262.60 28.86 257.34 29.40 252.00 C 29.48 241.58 31.20 231.28 32.52 220.96 C 33.63 210.31 36.23 199.78 35.53 189.01 C 36.26 179.23 33.23 169.70 33.70 159.94 C 33.73 155.92 32.39 152.03 32.56 148.00 C 32.90 139.91 30.35 132.03 30.71 123.94 C 30.95 118.92 29.45 114.02 29.60 109.00 C 29.58 97.32 29.46 85.63 29.67 73.96 C 30.03 65.91 36.50 60.16 42.27 55.40 C 60.04 42.37 82.14 37.29 103.60 34.37 M 142.63 53.02 C 142.77 82.35 142.73 111.68 142.47 141.00 C 142.59 148.86 141.45 156.64 141.13 164.48 C 150.37 168.67 159.86 172.82 169.99 174.28 C 176.52 175.00 183.03 174.50 189.57 174.33 C 189.32 170.59 189.62 166.84 190.57 163.21 C 191.83 158.41 190.81 153.35 192.05 148.55 C 192.88 145.17 192.52 141.68 192.63 138.24 C 192.67 134.45 193.93 130.81 194.25 127.04 C 194.60 122.07 194.01 117.05 194.75 112.10 C 196.76 103.04 194.46 93.63 196.39 84.56 C 196.61 82.48 197.28 80.10 195.96 78.25 C 190.14 69.68 181.10 63.95 171.62 60.17 C 162.33 56.56 152.54 54.09 142.63 53.02 M 118.58 72.68 C 115.42 74.72 113.60 78.18 112.41 81.64 C 109.61 88.45 109.86 95.88 108.59 103.01 C 108.03 107.05 109.07 111.01 109.52 114.99 C 109.82 121.91 111.34 128.97 114.89 134.98 C 116.38 137.50 119.82 140.45 122.48 137.61 C 128.17 131.76 129.09 123.07 130.02 115.35 C 131.16 108.84 131.12 102.16 129.94 95.66 C 129.23 88.33 127.90 80.60 123.35 74.59 C 122.20 73.42 120.25 71.63 118.58 72.68 Z" />
</g>
</svg>
