<?xml version="1.0" encoding="UTF-8" ?>
<!DOCTYPE svg PUBLIC "-//W3C//DTD SVG 1.1//EN" "http://www.w3.org/Graphics/SVG/1.1/DTD/svg11.dtd">
<svg width="70pt" height="71pt" viewBox="0 0 70 71" version="1.1" xmlns="http://www.w3.org/2000/svg">
<g id="#fefffeff">
<path fill="#fefffe" opacity="1.00" d=" M 23.21 23.76 C 31.09 23.40 39.00 23.36 46.87 23.78 C 46.86 25.11 46.85 26.45 46.84 27.78 C 40.47 28.03 34.09 27.62 27.72 28.00 C 27.60 29.47 27.48 30.93 27.37 32.40 C 30.88 32.50 34.40 32.56 37.90 32.77 C 37.87 34.09 37.85 35.41 37.83 36.73 C 34.43 36.79 31.02 36.91 27.62 37.13 C 27.57 39.10 27.57 41.07 27.61 43.04 C 34.02 43.43 40.44 43.04 46.85 43.23 C 46.86 44.57 46.87 45.90 46.89 47.23 C 39.01 47.62 31.09 47.62 23.21 47.24 C 23.12 39.41 23.13 31.58 23.21 23.76 Z" />
</g>
<g id="#4b505dff">
<path fill="#4b505d" opacity="1.00" d=" M 3.14 1.06 L 3.98 0.95 C 3.77 1.40 3.36 2.32 3.16 2.77 C 3.15 2.34 3.14 1.49 3.14 1.06 Z" />
<path fill="#4b505d" opacity="1.00" d=" M 18.39 0.84 C 29.45 1.15 40.53 1.09 51.60 0.88 C 50.12 3.84 49.34 7.10 50.35 10.35 C 52.95 11.09 55.55 11.83 58.15 12.58 C 58.76 15.04 59.16 17.59 60.28 19.89 C 63.00 21.62 66.26 20.10 69.08 19.45 C 69.17 30.16 68.86 40.87 69.19 51.58 C 66.38 50.74 63.00 49.21 60.32 51.22 C 59.16 53.46 58.76 55.98 58.12 58.40 C 55.56 59.18 52.98 59.94 50.41 60.69 C 49.99 63.14 49.74 65.62 49.61 68.10 C 54.93 70.13 60.67 69.31 66.22 69.35 C 62.06 71.21 57.39 69.99 53.01 70.09 C 40.67 70.08 28.34 70.02 16.00 70.13 C 11.96 70.02 7.58 71.21 3.80 69.32 C 9.32 69.34 15.02 70.08 20.32 68.10 C 20.12 65.68 20.49 63.06 19.37 60.82 C 17.02 59.60 14.38 59.13 11.85 58.45 C 11.19 56.02 10.79 53.47 9.65 51.20 C 7.03 49.25 3.70 50.92 0.91 51.54 C 0.93 40.85 0.95 30.16 0.93 19.47 C 3.81 20.13 7.63 21.88 10.03 19.27 C 10.93 17.12 11.29 14.79 11.82 12.53 C 14.35 11.83 17.09 11.55 19.36 10.14 C 21.27 7.18 19.54 3.73 18.39 0.84 M 18.76 24.02 C 18.25 30.00 18.76 36.01 18.53 42.01 C 18.52 45.28 18.27 49.54 21.66 51.33 C 25.30 52.53 29.24 51.94 33.00 52.02 C 37.88 51.82 42.83 52.50 47.65 51.59 C 52.04 50.04 52.87 43.39 49.69 40.32 C 47.65 39.02 45.19 38.67 43.01 37.69 C 41.92 36.40 42.57 34.67 42.74 33.19 C 45.11 32.49 47.60 32.01 49.74 30.72 C 53.35 27.24 51.51 19.24 45.99 19.09 C 38.98 18.83 31.95 18.97 24.94 19.01 C 21.96 18.79 19.04 20.97 18.76 24.02 Z" />
</g>
<g id="#8a8c94ff">
<path fill="#8a8c94" opacity="1.00" d=" M 3.98 0.95 C 8.76 0.45 13.61 0.09 18.39 0.84 C 19.54 3.73 21.27 7.18 19.36 10.14 C 17.09 11.55 14.35 11.83 11.82 12.53 C 11.29 14.79 10.93 17.12 10.03 19.27 C 7.63 21.88 3.81 20.13 0.93 19.47 C 0.99 14.33 1.11 9.19 1.01 4.05 C 1.55 3.73 2.62 3.09 3.16 2.77 C 3.36 2.32 3.77 1.40 3.98 0.95 M 5.28 4.28 C 2.08 7.86 3.97 13.12 3.70 17.45 C 5.04 17.40 6.39 17.35 7.73 17.28 C 7.78 14.36 7.92 11.44 8.21 8.53 C 11.11 8.48 14.00 8.42 16.90 8.26 C 16.86 6.92 16.83 5.59 16.80 4.25 C 12.96 4.09 9.12 4.14 5.28 4.28 Z" />
<path fill="#8a8c94" opacity="1.00" d=" M 51.60 0.88 C 57.23 0.16 65.19 -1.22 68.79 4.38 C 69.12 9.39 68.93 14.43 69.08 19.45 C 66.26 20.10 63.00 21.62 60.28 19.89 C 59.16 17.59 58.76 15.04 58.15 12.58 C 55.55 11.83 52.95 11.09 50.35 10.35 C 49.34 7.10 50.12 3.84 51.60 0.88 M 53.19 4.25 C 53.17 5.59 53.14 6.93 53.11 8.27 C 56.00 8.42 58.90 8.47 61.79 8.52 C 62.07 11.43 62.21 14.36 62.27 17.28 C 63.62 17.35 64.96 17.40 66.31 17.45 C 66.07 13.10 67.92 7.86 64.74 4.24 C 60.89 4.14 57.04 4.08 53.19 4.25 Z" />
<path fill="#8a8c94" opacity="1.00" d=" M 18.76 24.02 C 19.04 20.97 21.96 18.79 24.94 19.01 C 31.95 18.97 38.98 18.83 45.99 19.09 C 51.51 19.24 53.35 27.24 49.74 30.72 C 47.60 32.01 45.11 32.49 42.74 33.19 C 42.57 34.67 41.92 36.40 43.01 37.69 C 45.19 38.67 47.65 39.02 49.69 40.32 C 52.87 43.39 52.04 50.04 47.65 51.59 C 42.83 52.50 37.88 51.82 33.00 52.02 C 29.24 51.94 25.30 52.53 21.66 51.33 C 18.27 49.54 18.52 45.28 18.53 42.01 C 18.76 36.01 18.25 30.00 18.76 24.02 M 23.21 23.76 C 23.13 31.58 23.12 39.41 23.21 47.24 C 31.09 47.62 39.01 47.62 46.89 47.23 C 46.87 45.90 46.86 44.57 46.85 43.23 C 40.44 43.04 34.02 43.43 27.61 43.04 C 27.57 41.07 27.57 39.10 27.62 37.13 C 31.02 36.91 34.43 36.79 37.83 36.73 C 37.85 35.41 37.87 34.09 37.90 32.77 C 34.40 32.56 30.88 32.50 27.37 32.40 C 27.48 30.93 27.60 29.47 27.72 28.00 C 34.09 27.62 40.47 28.03 46.84 27.78 C 46.85 26.45 46.86 25.11 46.87 23.78 C 39.00 23.36 31.09 23.40 23.21 23.76 Z" />
<path fill="#8a8c94" opacity="1.00" d=" M 0.91 51.54 C 3.70 50.92 7.03 49.25 9.65 51.20 C 10.79 53.47 11.19 56.02 11.85 58.45 C 14.38 59.13 17.02 59.60 19.37 60.82 C 20.49 63.06 20.12 65.68 20.32 68.10 C 15.02 70.08 9.32 69.34 3.80 69.32 C 2.66 68.76 1.91 67.66 1.21 66.65 C 0.85 61.63 1.02 56.58 0.91 51.54 M 3.68 53.55 C 3.94 57.90 2.13 63.11 5.27 66.74 C 9.11 66.88 12.96 66.93 16.80 66.76 C 16.83 65.42 16.86 64.07 16.89 62.73 C 13.99 62.57 11.09 62.52 8.19 62.49 C 7.93 59.56 7.81 56.63 7.76 53.69 C 6.40 53.64 5.04 53.59 3.68 53.55 Z" />
<path fill="#8a8c94" opacity="1.00" d=" M 60.32 51.22 C 63.00 49.21 66.38 50.74 69.19 51.58 C 69.08 56.60 69.15 61.64 68.78 66.65 C 68.11 67.69 67.31 68.72 66.22 69.35 C 60.67 69.31 54.93 70.13 49.61 68.10 C 49.74 65.62 49.99 63.14 50.41 60.69 C 52.98 59.94 55.56 59.18 58.12 58.40 C 58.76 55.98 59.16 53.46 60.32 51.22 M 62.26 53.71 C 62.21 56.63 62.07 59.56 61.80 62.47 C 58.90 62.53 56.00 62.58 53.11 62.76 C 53.14 64.08 53.17 65.41 53.20 66.74 C 57.05 66.92 60.90 66.87 64.76 66.76 C 67.84 63.10 66.06 57.91 66.30 53.56 C 64.96 53.60 63.61 53.65 62.26 53.71 Z" />
</g>
<g id="#000002ff">
<path fill="#000002" opacity="1.00" d=" M 5.28 4.28 C 9.12 4.14 12.96 4.09 16.80 4.25 C 16.83 5.59 16.86 6.92 16.90 8.26 C 14.00 8.42 11.11 8.48 8.21 8.53 C 7.92 11.44 7.78 14.36 7.73 17.28 C 6.39 17.35 5.04 17.40 3.70 17.45 C 3.97 13.12 2.08 7.86 5.28 4.28 Z" />
<path fill="#000002" opacity="1.00" d=" M 53.19 4.25 C 57.04 4.08 60.89 4.14 64.74 4.24 C 67.92 7.86 66.07 13.10 66.31 17.45 C 64.96 17.40 63.62 17.35 62.27 17.28 C 62.21 14.36 62.07 11.43 61.79 8.52 C 58.90 8.47 56.00 8.42 53.11 8.27 C 53.14 6.93 53.17 5.59 53.19 4.25 Z" />
<path fill="#000002" opacity="1.00" d=" M 3.68 53.55 C 5.04 53.59 6.40 53.64 7.76 53.69 C 7.81 56.63 7.93 59.56 8.19 62.49 C 11.09 62.52 13.99 62.57 16.89 62.73 C 16.86 64.07 16.83 65.42 16.80 66.76 C 12.96 66.93 9.11 66.88 5.27 66.74 C 2.13 63.11 3.94 57.90 3.68 53.55 Z" />
<path fill="#000002" opacity="1.00" d=" M 62.26 53.71 C 63.61 53.65 64.96 53.60 66.30 53.56 C 66.06 57.91 67.84 63.10 64.76 66.76 C 60.90 66.87 57.05 66.92 53.20 66.74 C 53.17 65.41 53.14 64.08 53.11 62.76 C 56.00 62.58 58.90 62.53 61.80 62.47 C 62.07 59.56 62.21 56.63 62.26 53.71 Z" />
</g>
</svg>
