<?xml version="1.0" encoding="UTF-8" ?>
<!DOCTYPE svg PUBLIC "-//W3C//DTD SVG 1.1//EN" "http://www.w3.org/Graphics/SVG/1.1/DTD/svg11.dtd">
<svg width="73pt" height="121pt" viewBox="0 0 73 121" version="1.1" xmlns="http://www.w3.org/2000/svg">
<g id="#3c3730ff">
<path fill="#3c3730" opacity="1.00" d=" M 27.81 20.24 C 29.23 17.24 29.71 13.74 31.79 11.08 C 32.50 13.76 33.10 16.47 34.05 19.08 C 36.16 18.02 36.15 14.86 37.70 13.09 C 38.48 15.46 39.25 17.83 40.10 20.17 C 41.71 19.12 41.50 16.74 42.24 15.10 C 44.91 17.97 45.64 22.09 47.86 25.10 C 48.26 23.40 48.76 21.73 49.26 20.07 C 51.58 23.34 52.45 27.38 53.05 31.28 C 54.92 29.80 56.77 28.30 58.62 26.80 C 57.80 29.81 56.85 32.81 56.57 35.93 C 57.72 35.68 58.87 35.44 60.02 35.20 C 57.65 39.09 57.99 43.77 56.16 47.83 C 59.02 50.69 60.04 55.76 56.56 58.58 C 53.75 60.09 50.80 61.43 48.53 63.76 C 49.50 62.01 50.41 60.05 52.56 59.58 C 55.89 58.59 59.30 54.88 57.38 51.31 C 56.67 50.36 55.82 49.53 55.04 48.64 C 52.31 50.52 51.16 53.64 50.06 56.61 C 49.79 56.69 49.25 56.84 48.98 56.91 C 48.63 55.54 48.25 54.17 47.93 52.78 C 47.97 51.29 47.99 49.79 48.01 48.30 C 45.49 49.41 42.41 49.29 40.33 51.28 C 39.22 52.21 38.20 53.24 37.13 54.22 C 37.40 53.01 37.68 51.81 37.96 50.62 C 36.12 50.87 34.25 50.91 32.43 51.31 C 30.86 52.34 29.72 53.88 28.44 55.22 C 29.53 55.85 30.58 56.54 31.73 57.07 C 31.01 57.79 30.30 58.50 29.60 59.23 C 29.32 59.04 28.76 58.66 28.48 58.47 C 27.89 59.32 27.27 60.15 26.62 60.96 C 26.03 60.98 24.86 61.03 24.27 61.05 C 23.21 59.05 22.05 57.08 20.26 55.63 C 19.69 54.88 19.10 54.14 18.50 53.41 C 19.12 53.05 20.36 52.32 20.99 51.95 C 23.27 53.15 25.68 54.07 28.02 55.16 C 27.84 52.92 28.60 50.13 26.20 48.88 C 25.23 49.58 24.22 50.22 23.22 50.89 C 22.28 48.74 20.47 47.61 18.11 47.92 C 18.07 49.51 18.08 51.11 18.12 52.70 C 17.73 54.22 17.27 55.71 16.84 57.22 L 16.17 56.80 C 14.83 53.83 13.77 50.52 10.91 48.63 C 10.32 49.42 9.62 50.09 8.80 50.64 C 10.38 52.14 11.85 53.74 13.29 55.37 C 11.47 54.24 9.72 52.98 7.87 51.89 C 8.05 53.57 8.16 55.34 9.24 56.73 C 11.45 58.95 15.36 59.13 16.68 62.25 C 18.34 65.53 20.72 68.33 23.23 70.98 C 22.24 70.51 21.24 70.05 20.25 69.60 C 20.04 69.22 19.64 68.47 19.44 68.10 C 19.00 68.76 18.47 69.34 17.85 69.85 C 17.78 68.78 17.69 67.72 17.57 66.66 C 17.10 65.27 16.63 63.82 15.33 62.99 C 14.50 63.97 13.63 64.92 12.69 65.80 C 12.28 65.85 11.45 65.95 11.03 66.01 C 12.51 64.48 13.90 62.87 15.22 61.21 C 12.44 59.68 8.36 59.12 7.45 55.56 C 6.41 52.68 8.08 49.99 9.75 47.77 C 7.92 43.45 8.19 38.66 6.90 34.19 C 8.04 34.88 9.20 35.56 10.35 36.23 C 9.94 33.41 9.21 30.64 8.31 27.93 C 9.60 28.76 10.93 29.51 12.24 30.30 C 11.74 28.23 11.30 26.14 10.99 24.03 C 12.62 25.49 14.23 26.98 16.00 28.28 C 16.18 25.05 16.65 21.73 18.71 19.11 C 19.55 20.64 19.18 23.28 20.92 24.03 C 21.85 20.36 22.75 16.69 24.23 13.20 C 26.22 15.02 25.97 18.26 27.81 20.24 M 28.00 21.47 C 25.68 20.53 25.46 17.78 24.13 15.93 C 24.14 16.47 24.17 17.56 24.18 18.10 C 22.54 18.60 22.30 19.56 23.46 20.98 C 22.35 22.56 22.05 24.92 20.25 25.89 C 19.51 24.58 18.78 23.26 17.96 21.99 C 18.00 22.54 18.08 23.65 18.12 24.21 C 16.56 24.27 16.42 27.02 17.38 27.92 C 17.04 28.16 16.34 28.65 15.99 28.89 C 15.13 28.83 14.28 28.75 13.42 28.67 C 13.19 29.12 12.74 30.03 12.51 30.49 C 12.01 30.71 11.01 31.15 10.52 31.37 C 11.02 33.15 11.32 34.98 11.46 36.82 C 10.73 37.17 10.01 37.51 9.28 37.84 C 9.24 39.56 9.16 41.27 9.25 42.98 C 9.77 44.51 10.38 46.00 11.02 47.48 C 17.73 44.91 24.70 48.01 31.28 49.53 C 39.29 50.46 46.90 45.64 54.93 47.38 C 55.66 45.95 56.30 44.48 56.92 42.99 L 56.72 42.11 C 57.34 39.66 57.87 36.78 55.53 35.04 C 56.64 33.75 56.44 32.86 54.94 32.35 C 54.24 32.14 52.85 31.73 52.16 31.52 C 51.41 28.71 50.72 25.88 49.65 23.16 C 49.13 24.24 48.59 25.31 48.02 26.36 C 44.75 24.90 44.79 20.54 42.87 17.84 C 42.16 19.04 41.20 20.11 40.82 21.48 C 38.57 20.76 38.28 18.24 37.59 16.33 C 36.53 17.76 35.89 19.86 34.06 20.42 C 32.37 18.74 31.83 16.46 31.52 14.18 C 30.55 16.70 29.69 19.32 28.00 21.47 M 56.24 30.25 C 56.74 30.75 56.74 30.75 56.24 30.25 M 26.20 58.22 C 26.82 58.83 26.82 58.83 26.20 58.22 Z" />
</g>
<g id="#252525ff">
<path fill="#252525" opacity="1.00" d=" M 28.00 21.47 C 29.69 19.32 30.55 16.70 31.52 14.18 C 31.83 16.46 32.37 18.74 34.06 20.42 C 35.89 19.86 36.53 17.76 37.59 16.33 C 38.28 18.24 38.57 20.76 40.82 21.48 C 41.20 20.11 42.16 19.04 42.87 17.84 C 44.79 20.54 44.75 24.90 48.02 26.36 C 48.59 25.31 49.13 24.24 49.65 23.16 C 50.72 25.88 51.41 28.71 52.16 31.52 C 52.85 31.73 54.24 32.14 54.94 32.35 C 54.46 33.37 54.66 34.26 55.53 35.04 C 57.87 36.78 57.34 39.66 56.72 42.11 C 52.45 40.22 47.92 41.41 43.75 42.88 C 41.92 43.00 40.08 43.05 38.25 43.17 C 35.08 43.26 31.91 43.30 28.75 43.17 C 24.97 43.01 21.27 42.26 17.59 41.42 C 14.70 40.58 11.93 42.10 9.25 42.98 C 9.16 41.27 9.24 39.56 9.28 37.84 C 10.01 37.51 10.73 37.17 11.46 36.82 C 11.32 34.98 11.02 33.15 10.52 31.37 C 11.01 31.15 12.01 30.71 12.51 30.49 C 12.74 30.03 13.19 29.12 13.42 28.67 C 14.28 28.75 15.13 28.83 15.99 28.89 C 16.34 28.65 17.04 28.16 17.38 27.92 C 18.72 27.21 18.13 25.40 18.12 24.21 C 18.08 23.65 18.00 22.54 17.96 21.99 C 18.78 23.26 19.51 24.58 20.25 25.89 C 22.05 24.92 22.35 22.56 23.46 20.98 C 24.11 20.12 24.35 19.16 24.18 18.10 C 24.17 17.56 24.14 16.47 24.13 15.93 C 25.46 17.78 25.68 20.53 28.00 21.47 Z" />
</g>
<g id="#696969ff">
<path fill="#696969" opacity="1.00" d=" M 23.46 20.98 C 22.30 19.56 22.54 18.60 24.18 18.10 C 24.35 19.16 24.11 20.12 23.46 20.98 Z" />
</g>
<g id="#6d6d6dff">
<path fill="#6d6d6d" opacity="1.00" d=" M 17.38 27.92 C 16.42 27.02 16.56 24.27 18.12 24.21 C 18.13 25.40 18.72 27.21 17.38 27.92 Z" />
</g>
<g id="#737373ff">
<path fill="#737373" opacity="1.00" d=" M 56.24 30.25 C 56.74 30.75 56.74 30.75 56.24 30.25 Z" />
</g>
<g id="#646464ff">
<path fill="#646464" opacity="1.00" d=" M 54.94 32.35 C 56.44 32.86 56.64 33.75 55.53 35.04 C 54.66 34.26 54.46 33.37 54.94 32.35 Z" />
</g>
<g id="#bc3021ff">
<path fill="#bc3021" opacity="1.00" d=" M 9.25 42.98 C 11.93 42.10 14.70 40.58 17.59 41.42 C 21.27 42.26 24.97 43.01 28.75 43.17 C 30.19 43.30 31.63 43.51 33.07 43.63 C 31.95 44.75 30.72 45.95 30.46 47.59 C 32.32 48.00 34.19 48.38 36.07 48.72 C 36.13 47.95 36.26 47.19 36.48 46.44 C 35.57 45.53 34.74 44.54 33.92 43.55 C 35.36 43.41 36.81 43.32 38.25 43.17 C 40.08 43.05 41.92 43.00 43.75 42.88 C 48.14 42.65 52.55 42.37 56.92 42.99 C 56.30 44.48 55.66 45.95 54.93 47.38 C 46.90 45.64 39.29 50.46 31.28 49.53 C 24.70 48.01 17.73 44.91 11.02 47.48 C 10.38 46.00 9.77 44.51 9.25 42.98 Z" />
</g>
<g id="#c74d5dff">
<path fill="#c74d5d" opacity="1.00" d=" M 43.75 42.88 C 47.92 41.41 52.45 40.22 56.72 42.11 L 56.92 42.99 C 52.55 42.37 48.14 42.65 43.75 42.88 Z" />
</g>
<g id="#f4ad40ff">
<path fill="#f4ad40" opacity="1.00" d=" M 33.07 43.63 L 33.92 43.55 C 34.74 44.54 35.57 45.53 36.48 46.44 C 36.26 47.19 36.13 47.95 36.07 48.72 C 34.19 48.38 32.32 48.00 30.46 47.59 C 30.72 45.95 31.95 44.75 33.07 43.63 Z" />
</g>
<g id="#f8e1afff">
<path fill="#f8e1af" opacity="1.00" d=" M 18.11 47.92 C 20.47 47.61 22.28 48.74 23.22 50.89 C 24.22 50.22 25.23 49.58 26.20 48.88 C 28.60 50.13 27.84 52.92 28.02 55.16 C 25.68 54.07 23.27 53.15 20.99 51.95 C 20.36 52.32 19.12 53.05 18.50 53.41 L 18.12 52.70 C 18.08 51.11 18.07 49.51 18.11 47.92 Z" />
</g>
<g id="#fcdd83ff">
<path fill="#fcdd83" opacity="1.00" d=" M 40.33 51.28 C 42.41 49.29 45.49 49.41 48.01 48.30 C 47.99 49.79 47.97 51.29 47.93 52.78 L 47.47 53.39 C 46.85 53.04 45.60 52.33 44.98 51.97 C 41.23 53.69 37.57 55.61 33.93 57.56 C 33.21 57.31 32.45 57.29 31.73 57.07 C 30.58 56.54 29.53 55.85 28.44 55.22 C 29.72 53.88 30.86 52.34 32.43 51.31 C 34.25 50.91 36.12 50.87 37.96 50.62 C 37.68 51.81 37.40 53.01 37.13 54.22 C 38.20 53.24 39.22 52.21 40.33 51.28 Z" />
</g>
<g id="#f7e2b3ff">
<path fill="#f7e2b3" opacity="1.00" d=" M 8.80 50.64 C 9.62 50.09 10.32 49.42 10.91 48.63 C 13.77 50.52 14.83 53.83 16.17 56.80 C 15.21 56.32 14.15 56.04 13.29 55.37 C 11.85 53.74 10.38 52.14 8.80 50.64 Z" />
</g>
<g id="#fbe1b3ff">
<path fill="#fbe1b3" opacity="1.00" d=" M 50.06 56.61 C 51.16 53.64 52.31 50.52 55.04 48.64 C 55.82 49.53 56.67 50.36 57.38 51.31 C 54.13 52.03 53.27 56.16 50.06 56.61 Z" />
</g>
<g id="#d7b95cff">
<path fill="#d7b95c" opacity="1.00" d=" M 7.87 51.89 C 9.72 52.98 11.47 54.24 13.29 55.37 C 14.15 56.04 15.21 56.32 16.17 56.80 L 16.84 57.22 C 17.27 55.71 17.73 54.22 18.12 52.70 L 18.50 53.41 C 19.10 54.14 19.69 54.88 20.26 55.63 C 20.55 57.03 20.84 58.42 21.26 59.78 C 21.50 60.67 21.70 61.56 21.88 62.46 C 21.13 64.25 21.53 66.56 23.63 67.14 C 25.97 67.68 28.12 68.75 29.97 70.28 C 31.63 71.89 34.29 71.68 36.03 70.32 C 38.86 68.49 42.10 67.32 44.64 65.05 C 44.51 64.40 44.24 63.10 44.10 62.45 C 44.35 61.57 44.58 60.69 44.82 59.81 C 44.73 58.84 44.62 57.87 44.48 56.91 C 45.42 55.70 46.48 54.57 47.47 53.39 L 47.93 52.78 C 48.25 54.17 48.63 55.54 48.98 56.91 C 49.25 56.84 49.79 56.69 50.06 56.61 C 53.27 56.16 54.13 52.03 57.38 51.31 C 59.30 54.88 55.89 58.59 52.56 59.58 C 50.41 60.05 49.50 62.01 48.53 63.76 C 45.99 67.32 42.91 70.65 39.17 72.97 C 33.94 75.03 27.84 74.16 23.23 70.98 C 20.72 68.33 18.34 65.53 16.68 62.25 C 15.36 59.13 11.45 58.95 9.24 56.73 C 8.16 55.34 8.05 53.57 7.87 51.89 Z" />
</g>
<g id="#403f3cff">
<path fill="#403f3c" opacity="1.00" d=" M 33.93 57.56 C 37.57 55.61 41.23 53.69 44.98 51.97 C 45.60 52.33 46.85 53.04 47.47 53.39 C 46.48 54.57 45.42 55.70 44.48 56.91 C 43.48 58.23 42.64 59.66 41.72 61.02 C 41.12 61.02 39.92 61.01 39.32 61.01 C 38.71 60.17 38.13 59.31 37.57 58.44 C 37.32 58.60 36.83 58.93 36.59 59.10 C 35.70 58.59 34.81 58.07 33.93 57.56 M 39.22 58.22 C 39.83 58.84 39.83 58.84 39.22 58.22 Z" />
</g>
<g id="#edebceff">
<path fill="#edebce" opacity="1.00" d=" M 20.26 55.63 C 22.05 57.08 23.21 59.05 24.27 61.05 C 24.86 61.03 26.03 60.98 26.62 60.96 C 27.27 60.15 27.89 59.32 28.48 58.47 C 28.76 58.66 29.32 59.04 29.60 59.23 C 29.47 59.63 29.20 60.42 29.07 60.81 C 28.81 61.15 28.29 61.81 28.03 62.15 C 26.44 62.02 24.84 62.01 23.25 62.04 C 22.60 61.27 21.93 60.52 21.26 59.78 C 20.84 58.42 20.55 57.03 20.26 55.63 Z" />
</g>
<g id="#dabc7bff">
<path fill="#dabc7b" opacity="1.00" d=" M 31.73 57.07 C 32.45 57.29 33.21 57.31 33.93 57.56 C 34.81 58.07 35.70 58.59 36.59 59.10 C 36.71 59.78 36.94 61.16 37.05 61.85 C 34.66 60.14 31.81 60.02 29.07 60.81 C 29.20 60.42 29.47 59.63 29.60 59.23 C 30.30 58.50 31.01 57.79 31.73 57.07 Z" />
</g>
<g id="#f5f0ddff">
<path fill="#f5f0dd" opacity="1.00" d=" M 41.72 61.02 C 42.64 59.66 43.48 58.23 44.48 56.91 C 44.62 57.87 44.73 58.84 44.82 59.81 C 44.10 60.51 43.42 61.24 42.76 62.00 C 41.12 62.03 39.47 62.10 37.83 62.19 L 37.05 61.85 C 36.94 61.16 36.71 59.78 36.59 59.10 C 36.83 58.93 37.32 58.60 37.57 58.44 C 38.13 59.31 38.71 60.17 39.32 61.01 C 39.92 61.01 41.12 61.02 41.72 61.02 Z" />
</g>
<g id="#e4f6ffff">
<path fill="#e4f6ff" opacity="1.00" d=" M 26.20 58.22 C 26.82 58.83 26.82 58.83 26.20 58.22 Z" />
</g>
<g id="#fffdfbff">
<path fill="#fffdfb" opacity="1.00" d=" M 39.22 58.22 C 39.83 58.84 39.83 58.84 39.22 58.22 Z" />
</g>
<g id="#fce494ff">
<path fill="#fce494" opacity="1.00" d=" M 29.07 60.81 C 31.81 60.02 34.66 60.14 37.05 61.85 L 37.83 62.19 C 39.76 63.34 42.02 62.53 44.10 62.45 C 44.24 63.10 44.51 64.40 44.64 65.05 C 42.10 67.32 38.86 68.49 36.03 70.32 C 34.06 69.80 31.95 69.81 29.97 70.28 C 28.12 68.75 25.97 67.68 23.63 67.14 C 21.53 66.56 21.13 64.25 21.88 62.46 C 23.72 62.68 25.58 62.71 27.43 62.76 L 28.03 62.15 C 28.29 61.81 28.81 61.15 29.07 60.81 M 32.19 66.28 L 32.17 67.19 C 32.17 67.56 32.17 68.30 32.18 68.67 C 33.94 71.27 36.88 66.58 33.93 66.20 L 33.12 65.77 L 32.19 66.28 Z" />
</g>
<g id="#d2c146ff">
<path fill="#d2c146" opacity="1.00" d=" M 15.33 62.99 C 16.63 63.82 17.10 65.27 17.57 66.66 C 15.94 66.36 14.33 66.05 12.69 65.80 C 13.63 64.92 14.50 63.97 15.33 62.99 Z" />
</g>
<g id="#846a5dff">
<path fill="#846a5d" opacity="1.00" d=" M 39.17 72.97 C 42.91 70.65 45.99 67.32 48.53 63.76 C 48.42 64.82 48.27 65.88 48.08 66.93 C 51.30 69.12 50.87 73.17 50.47 76.57 C 49.42 80.79 48.24 84.99 46.79 89.10 C 46.74 86.95 46.54 84.80 46.26 82.66 C 47.01 81.52 47.70 80.33 48.32 79.11 C 49.78 75.59 51.40 70.82 47.73 68.08 C 44.81 68.96 43.10 71.63 41.69 74.15 C 40.06 76.60 38.34 79.11 36.04 80.98 C 33.19 82.46 30.08 83.38 27.27 84.96 C 28.01 86.29 28.73 87.64 29.40 89.01 C 28.59 88.35 27.78 87.69 26.98 87.02 C 27.03 88.70 27.07 90.37 27.08 92.05 C 29.93 90.93 32.81 89.91 35.61 88.71 C 35.23 90.17 34.84 91.63 34.44 93.10 C 33.89 92.42 33.71 90.97 32.54 91.42 C 30.97 93.88 29.77 97.05 26.62 97.85 C 22.78 99.31 19.27 96.47 16.97 93.69 C 16.51 91.25 16.19 88.77 15.79 86.33 C 16.05 88.59 16.22 90.86 16.46 93.12 C 15.65 92.30 14.78 91.53 13.88 90.82 C 13.59 88.52 14.06 86.20 15.51 84.35 C 13.40 83.43 11.28 82.56 9.16 81.69 C 9.16 81.25 9.16 80.37 9.16 79.93 C 11.26 81.20 13.52 82.15 15.73 83.19 C 15.05 80.58 14.82 77.85 15.43 75.19 C 14.63 74.51 13.83 73.82 13.05 73.11 C 14.24 72.92 15.43 72.76 16.63 72.62 C 16.99 71.68 17.40 70.75 17.85 69.85 C 18.16 71.03 18.38 72.22 18.50 73.44 C 19.98 73.56 21.41 74.01 22.89 74.13 C 24.25 77.81 27.87 82.09 24.77 85.81 C 23.30 85.75 21.84 85.78 20.37 85.90 C 19.74 84.16 19.01 82.46 18.31 80.75 C 19.59 79.64 20.85 78.51 22.03 77.30 C 22.01 76.81 21.99 75.82 21.97 75.33 L 21.95 74.81 C 20.62 73.92 17.89 73.57 17.15 75.30 C 15.41 80.59 18.45 85.94 18.98 91.23 C 19.10 92.44 19.19 93.66 19.27 94.87 C 21.43 94.98 23.59 94.98 25.75 94.85 C 25.67 91.24 25.68 87.63 25.82 84.02 C 29.77 81.31 35.27 81.31 38.17 77.09 C 32.88 77.32 27.47 77.12 22.89 74.13 C 21.99 72.63 21.09 71.13 20.25 69.60 C 21.24 70.05 22.24 70.51 23.23 70.98 C 27.84 74.16 33.94 75.03 39.17 72.97 M 20.20 80.17 C 20.54 81.51 20.87 82.87 21.61 84.06 C 21.78 83.58 22.12 82.62 22.29 82.14 C 22.79 82.84 23.35 83.48 23.99 84.06 C 23.96 82.40 23.97 80.75 23.99 79.11 C 22.73 79.48 21.47 79.86 20.20 80.17 Z" />
</g>
<g id="#ebbf6cff">
<path fill="#ebbf6c" opacity="1.00" d=" M 11.03 66.01 C 11.45 65.95 12.28 65.85 12.69 65.80 C 14.33 66.05 15.94 66.36 17.57 66.66 C 17.69 67.72 17.78 68.78 17.85 69.85 C 17.40 70.75 16.99 71.68 16.63 72.62 C 15.43 72.76 14.24 72.92 13.05 73.11 C 13.83 73.82 14.63 74.51 15.43 75.19 C 14.82 77.85 15.05 80.58 15.73 83.19 C 13.52 82.15 11.26 81.20 9.16 79.93 C 8.85 79.43 8.23 78.42 7.92 77.91 C 7.70 74.46 8.88 71.17 10.14 68.03 C 10.37 67.52 10.81 66.51 11.03 66.01 Z" />
</g>
<g id="#7a4f0bff">
<path fill="#7a4f0b" opacity="1.00" d=" M 32.19 66.28 L 33.12 65.77 L 33.93 66.20 C 33.49 66.45 32.61 66.95 32.17 67.19 L 32.19 66.28 Z" />
</g>
<g id="#d6a96dff">
<path fill="#d6a96d" opacity="1.00" d=" M 33.93 66.20 C 36.88 66.58 33.94 71.27 32.18 68.67 C 32.17 68.30 32.17 67.56 32.17 67.19 C 32.61 66.95 33.49 66.45 33.93 66.20 Z" />
</g>
<g id="#120502bd">
<path fill="#120502" opacity="0.74" d=" M 7.92 77.91 C 5.84 75.32 7.51 70.15 10.14 68.03 C 8.88 71.17 7.70 74.46 7.92 77.91 Z" />
</g>
<g id="#eae4d9ff">
<path fill="#eae4d9" opacity="1.00" d=" M 17.85 69.85 C 18.47 69.34 19.00 68.76 19.44 68.10 C 19.64 68.47 20.04 69.22 20.25 69.60 C 21.09 71.13 21.99 72.63 22.89 74.13 C 21.41 74.01 19.98 73.56 18.50 73.44 C 18.38 72.22 18.16 71.03 17.85 69.85 Z" />
</g>
<g id="#fbe295ff">
<path fill="#fbe295" opacity="1.00" d=" M 41.69 74.15 C 43.10 71.63 44.81 68.96 47.73 68.08 C 51.40 70.82 49.78 75.59 48.32 79.11 C 47.69 77.29 46.84 75.56 45.95 73.84 C 44.57 74.27 43.11 74.16 41.69 74.15 Z" />
</g>
<g id="#75470fff">
<path fill="#75470f" opacity="1.00" d=" M 29.97 70.28 C 31.95 69.81 34.06 69.80 36.03 70.32 C 34.29 71.68 31.63 71.89 29.97 70.28 Z" />
</g>
<g id="#f0c771ff">
<path fill="#f0c771" opacity="1.00" d=" M 41.69 74.15 C 43.11 74.16 44.57 74.27 45.95 73.84 C 46.84 75.56 47.69 77.29 48.32 79.11 C 47.70 80.33 47.01 81.52 46.26 82.66 C 42.96 85.08 39.40 87.17 35.61 88.71 C 32.81 89.91 29.93 90.93 27.08 92.05 C 27.07 90.37 27.03 88.70 26.98 87.02 C 27.78 87.69 28.59 88.35 29.40 89.01 C 28.73 87.64 28.01 86.29 27.27 84.96 C 30.08 83.38 33.19 82.46 36.04 80.98 C 38.34 79.11 40.06 76.60 41.69 74.15 Z" />
</g>
<g id="#e8e1eaff">
<path fill="#e8e1ea" opacity="1.00" d=" M 22.89 74.13 C 27.47 77.12 32.88 77.32 38.17 77.09 C 35.27 81.31 29.77 81.31 25.82 84.02 C 25.68 87.63 25.67 91.24 25.75 94.85 C 23.59 94.98 21.43 94.98 19.27 94.87 C 19.19 93.66 19.10 92.44 18.98 91.23 C 19.30 87.72 18.92 84.21 18.31 80.75 C 19.01 82.46 19.74 84.16 20.37 85.90 C 21.84 85.78 23.30 85.75 24.77 85.81 C 27.87 82.09 24.25 77.81 22.89 74.13 M 20.18 87.03 C 19.91 89.39 19.74 91.76 19.99 94.13 C 21.65 94.25 23.31 94.26 24.97 94.13 C 25.13 91.87 25.13 89.60 24.99 87.34 C 23.40 87.13 21.79 87.02 20.18 87.03 Z" />
</g>
<g id="#878282ff">
<path fill="#878282" opacity="1.00" d=" M 17.15 75.30 C 18.75 75.43 20.37 75.46 21.97 75.33 C 21.99 75.82 22.01 76.81 22.03 77.30 C 20.85 78.51 19.59 79.64 18.31 80.75 C 18.92 84.21 19.30 87.72 18.98 91.23 C 18.45 85.94 15.41 80.59 17.15 75.30 Z" />
</g>
<g id="#b2b2b3ff">
<path fill="#b2b2b3" opacity="1.00" d=" M 46.79 89.10 C 48.24 84.99 49.42 80.79 50.47 76.57 C 53.86 77.63 56.76 80.85 57.65 84.33 C 59.94 85.81 59.12 88.72 59.20 91.00 C 59.59 92.61 57.54 92.98 57.35 94.34 C 56.98 97.19 54.34 98.74 52.53 100.70 C 51.05 101.18 49.29 101.22 48.50 102.79 C 46.28 103.51 43.82 103.05 41.50 103.24 C 41.27 103.65 40.82 104.47 40.59 104.88 C 36.12 105.55 31.53 105.06 27.01 105.15 C 25.67 105.25 24.83 104.61 24.49 103.23 C 22.18 103.04 19.71 103.52 17.50 102.79 C 16.71 101.24 14.96 101.17 13.50 100.66 C 12.04 99.35 10.65 97.96 9.34 96.51 C 8.83 95.05 8.71 93.34 7.21 92.51 C 6.48 90.33 6.59 87.69 7.14 85.45 C 8.66 84.75 8.86 83.15 9.16 81.69 C 11.28 82.56 13.40 83.43 15.51 84.35 C 14.06 86.20 13.59 88.52 13.88 90.82 C 14.78 91.53 15.65 92.30 16.46 93.12 L 16.97 93.69 C 19.27 96.47 22.78 99.31 26.62 97.85 C 29.77 97.05 30.97 93.88 32.54 91.42 C 33.71 90.97 33.89 92.42 34.44 93.10 C 35.35 95.07 36.82 96.64 38.84 97.50 C 40.40 98.56 42.63 98.57 44.14 97.43 C 44.93 96.88 45.75 96.39 46.61 95.96 C 46.48 93.67 46.67 91.39 46.79 89.10 M 47.04 92.30 C 45.56 95.37 50.31 92.47 47.04 92.30 Z" />
<path fill="#b2b2b3" opacity="1.00" d=" M 37.47 92.01 C 36.97 89.61 42.03 89.73 41.47 92.07 C 40.14 92.03 38.81 92.02 37.47 92.01 Z" />
</g>
<g id="#bbbfbcff">
<path fill="#bbbfbc" opacity="1.00" d=" M 20.20 80.17 C 21.47 79.86 22.73 79.48 23.99 79.11 C 23.97 80.75 23.96 82.40 23.99 84.06 C 23.35 83.48 22.79 82.84 22.29 82.14 C 22.12 82.62 21.78 83.58 21.61 84.06 C 20.87 82.87 20.54 81.51 20.20 80.17 Z" />
</g>
<g id="#454833ff">
<path fill="#454833" opacity="1.00" d=" M 35.61 88.71 C 39.40 87.17 42.96 85.08 46.26 82.66 C 46.54 84.80 46.74 86.95 46.79 89.10 C 46.67 91.39 46.48 93.67 46.61 95.96 C 45.75 96.39 44.93 96.88 44.14 97.43 C 42.49 96.67 40.47 96.66 38.84 97.50 C 36.82 96.64 35.35 95.07 34.44 93.10 C 34.84 91.63 35.23 90.17 35.61 88.71 M 37.47 92.01 C 37.13 94.03 41.87 94.11 41.47 92.07 C 42.03 89.73 36.97 89.61 37.47 92.01 Z" />
</g>
<g id="#6c6c6bff">
<path fill="#6c6c6b" opacity="1.00" d=" M 20.18 87.03 C 21.79 87.02 23.40 87.13 24.99 87.34 C 25.13 89.60 25.13 91.87 24.97 94.13 C 23.31 94.26 21.65 94.25 19.99 94.13 C 19.74 91.76 19.91 89.39 20.18 87.03 M 21.55 90.96 L 22.02 91.74 L 23.01 91.73 L 23.47 90.94 C 23.62 90.72 23.92 90.26 24.07 90.03 C 23.84 87.38 19.29 89.58 21.55 90.96 Z" />
</g>
<g id="#c7c7c3ff">
<path fill="#c7c7c3" opacity="1.00" d=" M 21.55 90.96 C 19.29 89.58 23.84 87.38 24.07 90.03 C 23.92 90.26 23.62 90.72 23.47 90.94 C 22.99 90.95 22.03 90.96 21.55 90.96 Z" />
</g>
<g id="#000100ff">
<path fill="#000100" opacity="1.00" d=" M 21.55 90.96 C 22.03 90.96 22.99 90.95 23.47 90.94 L 23.01 91.73 L 22.02 91.74 L 21.55 90.96 Z" />
</g>
<g id="#010c00ff">
<path fill="#010c00" opacity="1.00" d=" M 37.47 92.01 C 38.81 92.02 40.14 92.03 41.47 92.07 C 41.87 94.11 37.13 94.03 37.47 92.01 Z" />
</g>
<g id="#060c0bff">
<path fill="#060c0b" opacity="1.00" d=" M 47.04 92.30 C 50.31 92.47 45.56 95.37 47.04 92.30 Z" />
</g>
<g id="#080309ff">
<path fill="#080309" opacity="1.00" d=" M 38.84 97.50 C 40.47 96.66 42.49 96.67 44.14 97.43 C 42.63 98.57 40.40 98.56 38.84 97.50 Z" />
</g>
</svg>
