<?xml version="1.0" encoding="UTF-8" ?>
<!DOCTYPE svg PUBLIC "-//W3C//DTD SVG 1.1//EN" "http://www.w3.org/Graphics/SVG/1.1/DTD/svg11.dtd">
<svg width="187pt" height="315pt" viewBox="0 0 187 315" version="1.1" xmlns="http://www.w3.org/2000/svg">
<g id="#94aad9ff">
<path fill="#94aad9" opacity="1.00" d=" M 78.47 13.44 C 81.56 12.47 84.82 12.76 88.01 12.74 C 94.68 12.81 101.35 12.66 108.02 12.77 C 116.66 14.36 125.59 15.03 133.80 18.50 C 139.56 20.03 144.59 23.38 149.53 26.59 C 152.82 29.64 157.03 31.72 159.29 35.75 C 165.08 41.92 167.23 50.41 168.83 58.48 C 170.01 62.72 168.35 67.37 170.53 71.36 C 171.06 75.04 171.39 79.12 169.62 82.54 C 168.74 87.79 170.02 93.26 168.81 98.50 C 168.11 101.81 169.12 105.35 167.69 108.51 C 166.16 115.27 166.97 122.42 165.08 129.13 C 163.78 140.03 166.52 150.81 166.44 161.70 C 168.17 168.39 165.70 175.58 168.45 182.04 C 168.60 195.36 168.47 208.70 168.51 222.03 C 168.72 224.18 167.23 225.97 167.17 228.08 C 166.85 236.22 165.07 244.25 162.74 252.04 C 159.19 260.47 154.71 268.65 148.26 275.24 C 146.01 277.37 144.13 279.83 142.29 282.31 C 137.00 286.02 132.82 291.37 126.57 293.61 C 113.03 300.86 97.09 303.83 81.92 301.09 C 73.91 300.28 66.41 297.07 59.06 293.98 C 54.17 290.92 49.37 287.70 44.61 284.44 C 41.56 281.77 37.92 279.76 35.70 276.26 C 29.59 270.27 25.25 262.71 22.16 254.78 C 19.88 246.98 16.44 239.36 16.18 231.13 C 14.60 226.50 15.48 221.51 14.15 216.82 C 13.90 207.96 13.88 199.04 14.16 190.18 C 16.08 184.20 14.02 177.77 16.21 171.88 C 16.73 166.45 16.67 160.81 18.45 155.62 C 19.36 146.14 20.38 136.48 18.74 127.02 C 18.25 122.82 19.55 118.34 17.69 114.38 C 16.73 110.78 17.80 106.95 16.88 103.33 C 15.51 97.82 17.45 91.96 15.54 86.56 C 14.95 84.78 15.14 82.87 15.09 81.03 C 15.17 70.71 15.05 60.39 15.15 50.08 C 15.62 42.08 21.98 36.52 27.58 31.60 C 31.68 29.09 35.44 26.01 39.68 23.74 C 47.59 20.83 55.44 17.63 63.72 15.92 C 68.52 14.47 73.59 14.47 78.47 13.44 M 80.46 22.67 C 73.55 23.49 66.72 24.88 60.02 26.72 C 48.29 29.86 36.24 34.66 28.11 44.06 C 25.09 47.24 24.33 51.75 24.50 55.98 C 24.62 67.00 23.92 78.09 25.42 89.05 C 25.33 96.41 26.61 103.66 26.89 111.00 C 28.07 116.99 27.26 123.14 28.31 129.15 C 30.24 144.71 26.47 160.08 25.13 175.50 C 22.41 199.99 22.06 225.44 30.07 249.06 C 38.83 274.34 64.75 291.18 90.96 292.55 C 101.51 292.60 112.19 290.34 121.62 285.55 C 133.55 279.76 142.05 269.05 149.11 258.16 C 153.49 250.45 156.19 241.80 157.42 233.03 C 157.75 226.67 159.05 220.38 158.77 213.99 C 158.55 201.01 159.39 187.97 157.75 175.06 C 158.16 167.97 156.45 161.03 156.60 153.97 C 156.84 151.03 154.73 148.45 155.27 145.52 C 155.79 140.03 155.28 134.50 155.74 129.00 C 158.05 110.73 160.85 92.43 160.76 73.97 C 160.47 63.37 159.57 51.88 152.96 43.12 C 148.71 38.09 143.89 33.26 137.85 30.42 C 127.88 25.76 116.99 23.15 106.03 22.37 C 97.51 22.34 88.96 21.99 80.46 22.67 Z" />
<path fill="#94aad9" opacity="1.00" d=" M 37.65 48.64 C 47.46 40.45 60.33 37.49 72.61 35.18 C 72.58 54.79 72.58 74.40 72.74 94.01 C 73.71 102.42 73.10 110.91 73.88 119.33 C 62.66 124.70 50.01 128.95 37.48 126.49 C 36.12 111.35 33.98 96.26 33.53 81.03 C 32.41 73.26 32.80 65.41 32.26 57.60 C 31.76 53.75 35.20 51.07 37.65 48.64 Z" />
<path fill="#94aad9" opacity="1.00" d=" M 88.93 53.88 C 90.04 51.97 92.81 50.13 94.53 52.47 C 100.06 58.89 99.92 68.05 100.73 76.03 C 100.08 83.09 99.91 90.49 96.84 97.02 C 95.95 99.25 93.90 100.63 92.04 101.99 C 84.47 95.67 84.80 84.96 83.84 76.01 C 84.72 68.53 84.63 60.39 88.93 53.88 Z" />
</g>
<g id="#01081aff">
<path fill="#01081a" opacity="1.00" d=" M 80.46 22.67 C 88.96 21.99 97.51 22.34 106.03 22.37 C 116.99 23.15 127.88 25.76 137.85 30.42 C 143.89 33.26 148.71 38.09 152.96 43.12 C 159.57 51.88 160.47 63.37 160.76 73.97 C 160.85 92.43 158.05 110.73 155.74 129.00 C 155.28 134.50 155.79 140.03 155.27 145.52 C 154.73 148.45 156.84 151.03 156.60 153.97 C 156.45 161.03 158.16 167.97 157.75 175.06 C 159.39 187.97 158.55 201.01 158.77 213.99 C 159.05 220.38 157.75 226.67 157.42 233.03 C 156.19 241.80 153.49 250.45 149.11 258.16 C 142.05 269.05 133.55 279.76 121.62 285.55 C 112.19 290.34 101.51 292.60 90.96 292.55 C 64.75 291.18 38.83 274.34 30.07 249.06 C 22.06 225.44 22.41 199.99 25.13 175.50 C 26.47 160.08 30.24 144.71 28.31 129.15 C 27.26 123.14 28.07 116.99 26.89 111.00 C 26.61 103.66 25.33 96.41 25.42 89.05 C 23.92 78.09 24.62 67.00 24.50 55.98 C 24.33 51.75 25.09 47.24 28.11 44.06 C 36.24 34.66 48.29 29.86 60.02 26.72 C 66.72 24.88 73.55 23.49 80.46 22.67 M 37.65 48.64 C 35.20 51.07 31.76 53.75 32.26 57.60 C 32.80 65.41 32.41 73.26 33.53 81.03 C 33.98 96.26 36.12 111.35 37.48 126.49 C 50.01 128.95 62.66 124.70 73.88 119.33 C 73.10 110.91 73.71 102.42 72.74 94.01 C 72.58 74.40 72.58 54.79 72.61 35.18 C 60.33 37.49 47.46 40.45 37.65 48.64 M 88.93 53.88 C 84.63 60.39 84.72 68.53 83.84 76.01 C 84.80 84.96 84.47 95.67 92.04 101.99 C 93.90 100.63 95.95 99.25 96.84 97.02 C 99.91 90.49 100.08 83.09 100.73 76.03 C 99.92 68.05 100.06 58.89 94.53 52.47 C 92.81 50.13 90.04 51.97 88.93 53.88 Z" />
</g>
</svg>
