<?xml version="1.0" encoding="UTF-8" ?>
<!DOCTYPE svg PUBLIC "-//W3C//DTD SVG 1.1//EN" "http://www.w3.org/Graphics/SVG/1.1/DTD/svg11.dtd">
<svg width="463pt" height="532pt" viewBox="0 0 463 532" version="1.1" xmlns="http://www.w3.org/2000/svg">
<g id="#ffffffff">
</g>
<g id="#97addcff">
<path fill="#97addc" opacity="1.00" d=" M 135.13 0.00 L 145.03 0.00 C 145.09 14.68 144.90 29.37 145.18 44.05 C 145.07 46.79 145.29 50.00 143.17 52.09 C 139.81 55.65 136.17 58.93 132.86 62.53 C 143.01 72.25 152.68 82.45 162.85 92.15 C 165.04 94.19 166.94 96.80 166.76 99.95 C 166.74 114.63 166.50 129.32 166.84 144.00 C 165.55 144.01 164.26 144.02 162.97 144.03 C 162.96 131.68 162.89 119.33 163.06 106.98 C 163.00 104.51 163.16 101.95 162.31 99.60 C 160.79 96.63 158.11 94.52 155.80 92.21 C 146.82 83.53 138.19 74.48 129.20 65.81 C 125.66 69.42 122.46 73.38 118.56 76.62 C 116.51 78.43 113.68 78.69 111.07 78.77 C 74.05 78.62 37.02 78.64 0.00 78.74 L 0.00 68.97 C 32.67 68.98 65.34 68.93 98.00 68.99 C 102.46 68.88 107.08 69.59 111.41 68.32 C 115.17 66.27 117.73 62.68 120.75 59.75 C 124.74 55.40 129.38 51.69 133.25 47.22 C 135.78 44.46 135.39 40.47 135.46 37.01 C 135.10 24.67 135.59 12.33 135.13 0.00 Z" />
<path fill="#97addc" opacity="1.00" d=" M 318.12 0.00 L 328.04 0.00 C 328.00 13.34 328.13 26.68 327.94 40.01 C 328.00 43.34 327.68 47.19 330.23 49.76 C 334.68 54.64 339.79 58.87 344.21 63.79 C 346.73 66.30 349.01 69.32 352.34 70.79 C 356.13 71.82 360.12 71.37 364.00 71.39 C 397.00 71.09 430.00 71.64 463.00 71.12 L 463.00 81.03 C 425.97 81.12 388.94 80.89 351.92 81.16 C 349.73 81.08 347.31 80.99 345.62 79.39 C 341.54 75.80 338.06 71.58 334.04 67.93 C 333.32 66.50 332.69 66.54 332.16 68.04 C 317.83 83.08 302.84 97.46 288.27 112.26 C 284.88 115.90 280.45 118.80 278.19 123.34 C 276.90 129.38 277.86 135.62 277.77 141.75 C 276.51 141.82 275.26 141.89 274.01 141.97 C 274.07 136.29 273.74 130.61 273.83 124.93 C 273.95 122.69 273.92 120.22 275.35 118.34 C 277.76 115.12 280.94 112.60 283.75 109.75 C 299.16 94.42 314.37 78.90 329.95 63.74 C 326.78 60.34 323.20 57.36 319.99 54.00 C 318.06 52.24 318.26 49.45 318.16 47.06 C 318.38 31.38 318.49 15.68 318.12 0.00 Z" />
<path fill="#97addc" opacity="1.00" d=" M 201.21 148.02 C 211.35 145.80 221.74 147.50 232.00 146.90 C 242.30 146.17 252.31 149.06 262.40 150.53 C 271.19 152.88 280.14 155.21 288.06 159.87 C 297.67 165.53 307.13 172.26 313.14 181.88 C 317.09 187.62 319.21 194.32 321.17 200.93 C 323.23 208.15 322.39 215.79 324.03 223.08 C 325.05 227.50 325.66 232.13 324.48 236.59 C 322.00 246.22 323.55 256.24 322.24 266.02 C 321.66 273.45 319.45 280.69 319.39 288.17 C 319.30 292.68 318.62 297.14 317.76 301.56 C 315.81 312.04 317.31 322.72 318.70 333.17 C 319.29 342.11 320.00 351.06 319.99 360.03 C 320.03 366.43 322.34 372.58 322.18 379.00 C 321.92 388.67 322.09 398.33 322.01 408.00 C 321.94 415.12 322.69 422.32 321.31 429.38 C 320.32 434.28 319.76 439.25 319.28 444.22 C 317.45 458.08 313.12 471.69 305.49 483.47 C 301.47 490.23 295.78 495.69 290.79 501.69 C 285.58 507.87 279.24 512.99 272.78 517.81 C 260.33 525.00 246.60 530.14 232.29 532.00 L 211.73 532.00 C 199.70 530.68 188.04 526.87 177.07 521.86 C 170.49 518.34 164.48 513.86 158.36 509.62 C 149.89 503.90 143.14 496.06 137.02 487.98 C 124.72 469.32 119.94 446.93 117.64 425.02 C 116.64 409.03 116.58 392.95 117.69 376.97 C 117.89 371.41 117.92 365.80 119.10 360.33 C 120.54 353.53 120.40 346.52 121.77 339.72 C 124.31 327.23 124.44 314.36 123.35 301.71 C 123.07 295.50 123.12 289.25 121.88 283.13 C 119.40 269.81 121.29 256.08 118.37 242.83 C 117.23 234.60 118.30 226.28 117.98 218.00 C 118.39 207.28 115.95 195.55 121.87 185.86 C 128.49 175.54 138.99 168.52 149.41 162.48 C 160.42 157.31 172.12 153.70 183.93 150.86 C 189.66 149.71 195.48 149.15 201.21 148.02 M 206.45 159.78 C 191.71 161.82 176.94 164.64 163.07 170.18 C 151.37 175.06 139.71 181.63 132.46 192.37 C 130.57 195.18 130.50 198.68 130.47 201.95 C 130.49 213.30 130.47 224.66 130.50 236.01 C 130.46 242.38 131.67 248.68 131.64 255.05 C 131.64 261.10 133.45 266.96 133.48 273.00 C 133.97 290.04 137.38 306.96 136.33 324.04 C 135.66 330.75 134.21 337.36 133.59 344.09 C 132.63 353.73 130.50 363.27 130.50 372.99 C 130.37 379.38 128.15 385.56 128.56 392.00 C 129.00 402.36 127.60 412.86 129.99 423.06 C 131.57 441.73 135.64 460.65 145.08 477.03 C 149.67 485.36 156.57 492.06 163.60 498.34 C 180.57 511.92 202.06 520.70 224.05 519.57 C 240.57 519.38 256.88 513.87 270.27 504.24 C 286.73 490.39 300.66 472.37 305.64 451.10 C 307.94 439.21 309.85 427.15 309.53 415.01 C 309.33 401.12 309.89 387.21 309.15 373.34 C 307.84 365.34 309.10 357.17 307.49 349.21 C 306.40 344.18 306.54 339.03 306.49 333.91 C 306.68 331.08 304.47 328.83 304.36 326.08 C 304.72 322.72 305.64 319.42 305.48 316.01 C 304.82 303.97 306.50 291.99 307.80 280.05 C 309.20 272.78 309.21 265.32 310.72 258.07 C 311.92 251.70 311.36 245.19 311.74 238.75 C 311.80 226.26 311.93 213.51 308.42 201.40 C 306.51 195.55 304.19 189.62 300.02 184.97 C 295.44 179.87 290.30 175.15 284.20 171.93 C 270.87 164.67 255.77 161.58 240.85 159.62 C 229.40 159.36 217.90 159.18 206.45 159.78 Z" />
<path fill="#97addc" opacity="1.00" d=" M 162.12 186.12 C 172.16 181.12 183.34 179.21 194.39 177.96 C 194.59 205.64 194.47 233.32 194.56 261.00 C 194.34 270.35 195.80 279.61 196.02 288.94 C 189.42 292.72 182.13 295.01 174.83 296.99 C 166.09 299.48 156.88 298.89 147.93 298.25 C 147.27 288.15 146.59 278.03 144.94 268.03 C 144.45 263.63 144.64 259.18 144.00 254.79 C 143.06 248.29 144.04 241.66 142.70 235.21 C 140.98 227.25 142.10 219.09 141.39 211.05 C 141.34 207.60 140.38 203.63 142.72 200.68 C 147.64 194.10 154.57 189.24 162.12 186.12 Z" />
<path fill="#97addc" opacity="1.00" d=" M 243.83 178.98 C 256.75 180.98 269.80 184.14 281.29 190.57 C 287.14 193.85 292.30 198.37 296.37 203.71 C 298.32 205.85 297.23 208.83 296.96 211.36 C 295.80 218.80 297.17 226.37 296.09 233.83 C 294.83 242.07 296.01 250.50 294.06 258.66 C 293.24 268.02 292.88 277.44 291.74 286.79 C 290.90 291.20 290.22 295.64 290.25 300.14 C 281.74 300.92 273.04 301.13 264.73 298.80 C 258.09 296.85 251.42 294.85 245.15 291.90 C 244.08 291.23 242.42 290.55 242.55 289.03 C 242.26 284.01 243.45 279.06 243.46 274.06 C 243.85 242.37 243.57 210.67 243.83 178.98 Z" />
<path fill="#97addc" opacity="1.00" d=" M 219.58 198.64 C 221.49 197.75 223.79 199.43 224.85 201.04 C 230.41 209.69 230.39 220.23 231.72 230.08 C 232.14 237.21 230.94 244.35 229.52 251.32 C 228.30 256.10 226.86 261.71 222.24 264.33 C 219.56 265.81 217.49 262.67 216.05 260.85 C 210.81 252.22 210.53 241.78 209.71 232.01 C 210.12 222.96 211.14 213.77 214.39 205.25 C 215.33 202.55 217.09 200.10 219.58 198.64 Z" />
</g>
<g id="#01081aff">
<path fill="#01081a" opacity="1.00" d=" M 332.16 68.04 C 332.69 66.54 333.32 66.50 334.04 67.93 C 333.57 67.95 332.63 68.01 332.16 68.04 Z" />
<path fill="#01081a" opacity="1.00" d=" M 206.45 159.78 C 217.90 159.18 229.40 159.36 240.85 159.62 C 255.77 161.58 270.87 164.67 284.20 171.93 C 290.30 175.15 295.44 179.87 300.02 184.97 C 304.19 189.62 306.51 195.55 308.42 201.40 C 311.93 213.51 311.80 226.26 311.74 238.75 C 311.36 245.19 311.92 251.70 310.72 258.07 C 309.21 265.32 309.20 272.78 307.80 280.05 C 306.50 291.99 304.82 303.97 305.48 316.01 C 305.64 319.42 304.72 322.72 304.36 326.08 C 304.47 328.83 306.68 331.08 306.49 333.91 C 306.54 339.03 306.40 344.18 307.49 349.21 C 309.10 357.17 307.84 365.34 309.15 373.34 C 309.89 387.21 309.33 401.12 309.53 415.01 C 309.85 427.15 307.94 439.21 305.64 451.10 C 300.66 472.37 286.73 490.39 270.27 504.24 C 256.88 513.87 240.57 519.38 224.05 519.57 C 202.06 520.70 180.57 511.92 163.60 498.34 C 156.57 492.06 149.67 485.36 145.08 477.03 C 135.64 460.65 131.57 441.73 129.99 423.06 C 127.60 412.86 129.00 402.36 128.56 392.00 C 128.15 385.56 130.37 379.38 130.50 372.99 C 130.50 363.27 132.63 353.73 133.59 344.09 C 134.21 337.36 135.66 330.75 136.33 324.04 C 137.38 306.96 133.97 290.04 133.48 273.00 C 133.45 266.96 131.64 261.10 131.64 255.05 C 131.67 248.68 130.46 242.38 130.50 236.01 C 130.47 224.66 130.49 213.30 130.47 201.95 C 130.50 198.68 130.57 195.18 132.46 192.37 C 139.71 181.63 151.37 175.06 163.07 170.18 C 176.94 164.64 191.71 161.82 206.45 159.78 M 162.12 186.12 C 154.57 189.24 147.64 194.10 142.72 200.68 C 140.38 203.63 141.34 207.60 141.39 211.05 C 142.10 219.09 140.98 227.25 142.70 235.21 C 144.04 241.66 143.06 248.29 144.00 254.79 C 144.64 259.18 144.45 263.63 144.94 268.03 C 146.59 278.03 147.27 288.15 147.93 298.25 C 156.88 298.89 166.09 299.48 174.83 296.99 C 182.13 295.01 189.42 292.72 196.02 288.94 C 195.80 279.61 194.34 270.35 194.56 261.00 C 194.47 233.32 194.59 205.64 194.39 177.96 C 183.34 179.21 172.16 181.12 162.12 186.12 M 243.83 178.98 C 243.57 210.67 243.85 242.37 243.46 274.06 C 243.45 279.06 242.26 284.01 242.55 289.03 C 242.42 290.55 244.08 291.23 245.15 291.90 C 251.42 294.85 258.09 296.85 264.73 298.80 C 273.04 301.13 281.74 300.92 290.25 300.14 C 290.22 295.64 290.90 291.20 291.74 286.79 C 292.88 277.44 293.24 268.02 294.06 258.66 C 296.01 250.50 294.83 242.07 296.09 233.83 C 297.17 226.37 295.80 218.80 296.96 211.36 C 297.23 208.83 298.32 205.85 296.37 203.71 C 292.30 198.37 287.14 193.85 281.29 190.57 C 269.80 184.14 256.75 180.98 243.83 178.98 M 219.58 198.64 C 217.09 200.10 215.33 202.55 214.39 205.25 C 211.14 213.77 210.12 222.96 209.71 232.01 C 210.53 241.78 210.81 252.22 216.05 260.85 C 217.49 262.67 219.56 265.81 222.24 264.33 C 226.86 261.71 228.30 256.10 229.52 251.32 C 230.94 244.35 232.14 237.21 231.72 230.08 C 230.39 220.23 230.41 209.69 224.85 201.04 C 223.79 199.43 221.49 197.75 219.58 198.64 Z" />
</g>
</svg>
