<?xml version="1.0" encoding="UTF-8" standalone="no"?>
<svg
   xmlns:dc="http://purl.org/dc/elements/1.1/"
   xmlns:cc="http://creativecommons.org/ns#"
   xmlns:rdf="http://www.w3.org/1999/02/22-rdf-syntax-ns#"
   xmlns:svg="http://www.w3.org/2000/svg"
   xmlns="http://www.w3.org/2000/svg"
   xmlns:sodipodi="http://sodipodi.sourceforge.net/DTD/sodipodi-0.dtd"
   xmlns:inkscape="http://www.inkscape.org/namespaces/inkscape"
   width="165pt"
   height="166pt"
   viewBox="0 0 165 166"
   version="1.1"
   id="svg2"
   inkscape:version="0.91 r13725"
   sodipodi:docname="player-img.svg">
  <metadata
     id="metadata196">
    <rdf:RDF>
      <cc:Work
         rdf:about="">
        <dc:format>image/svg+xml</dc:format>
        <dc:type
           rdf:resource="http://purl.org/dc/dcmitype/StillImage" />
        <dc:title></dc:title>
      </cc:Work>
    </rdf:RDF>
  </metadata>
  <defs
     id="defs194" />
  <sodipodi:namedview
     pagecolor="#ffffff"
     bordercolor="#666666"
     borderopacity="1"
     objecttolerance="10"
     gridtolerance="10"
     guidetolerance="10"
     inkscape:pageopacity="0"
     inkscape:pageshadow="2"
     inkscape:window-width="1366"
     inkscape:window-height="705"
     id="namedview192"
     showgrid="false"
     inkscape:zoom="2.2746988"
     inkscape:cx="122.99128"
     inkscape:cy="98.533745"
     inkscape:window-x="-8"
     inkscape:window-y="-8"
     inkscape:window-maximized="1"
     inkscape:current-layer="svg2" />
  <path
     fill="#506068"
     d=" M 69.10 4.67 C 70.05 3.93 71.04 3.22 72.02 2.52 C 70.10 4.61 71.53 6.64 72.93 8.45 C 72.74 11.80 73.86 15.52 72.16 18.60 C 72.11 19.20 72.01 20.40 71.96 21.00 C 71.19 20.98 69.65 20.95 68.89 20.93 C 68.94 20.20 69.05 18.74 69.10 18.02 C 69.77 17.87 71.09 17.59 71.76 17.45 C 69.52 16.05 66.95 16.26 64.44 16.43 C 64.31 14.88 64.19 13.33 64.08 11.78 C 65.17 12.04 66.27 12.27 67.38 12.47 L 68.04 12.51 C 69.43 12.48 70.76 12.79 71.88 13.63 C 71.29 10.57 71.87 6.82 69.10 4.67 Z"
     id="path8" />
  <path
     fill="#b0c0d8"
     d=" M 67.96 4.52 L 69.10 4.67 C 71.87 6.82 71.29 10.57 71.88 13.63 C 70.76 12.79 69.43 12.48 68.04 12.51 C 68.00 9.85 67.97 7.19 67.96 4.52 Z"
     id="path10" />
  <path
     fill="#485048"
     d=" M 61.17 17.27 C 61.60 16.98 62.48 16.41 62.91 16.12 L 64.44 16.43 C 66.95 16.26 69.52 16.05 71.76 17.45 C 71.09 17.59 69.77 17.87 69.10 18.02 L 68.01 18.24 C 68.02 18.82 68.03 19.99 68.03 20.57 C 68.90 21.48 69.75 22.40 70.59 23.33 C 71.66 23.03 72.69 22.64 73.69 22.16 C 74.24 22.19 75.34 22.25 75.89 22.28 L 76.15 20.65 C 77.33 21.86 78.49 23.10 79.49 24.46 C 79.71 25.52 79.94 26.58 80.17 27.64 C 79.50 27.92 78.16 28.46 77.49 28.74 C 75.46 29.03 73.51 29.62 71.58 30.27 C 73.05 32.28 75.47 31.94 77.66 32.15 C 79.93 33.71 79.28 37.40 78.25 39.58 C 78.84 40.60 79.15 41.72 79.17 42.93 L 78.36 42.80 C 77.16 42.58 75.96 42.36 74.75 42.14 C 74.51 42.83 74.01 44.20 73.76 44.89 L 73.07 45.60 C 73.03 44.83 72.94 43.31 72.89 42.54 C 72.59 42.00 71.98 40.90 71.67 40.36 C 71.34 40.19 70.68 39.86 70.35 39.70 C 70.67 37.86 70.89 36.02 71.04 34.16 C 69.81 35.41 68.90 36.90 68.27 38.53 C 67.61 37.91 66.96 37.29 66.33 36.65 L 66.45 35.74 C 66.80 35.94 67.49 36.34 67.83 36.54 C 67.82 35.96 67.79 34.80 67.77 34.22 L 67.03 34.22 C 65.25 34.52 62.51 33.52 61.70 35.70 C 60.63 37.49 58.65 41.50 61.97 41.97 C 64.36 41.38 66.43 39.98 68.57 38.81 C 68.86 39.41 69.45 40.62 69.75 41.23 C 67.35 43.41 66.93 46.71 65.81 49.59 C 64.97 50.42 64.88 51.32 65.52 52.28 C 66.09 53.57 66.63 54.87 67.14 56.19 C 64.10 55.03 63.48 51.59 61.83 49.16 C 60.14 46.60 58.48 43.89 56.07 41.93 C 54.65 41.55 53.17 41.51 51.72 41.37 C 51.56 38.62 51.46 35.76 52.87 33.28 C 55.47 33.15 58.05 32.88 60.65 32.70 C 60.77 28.20 59.86 23.38 61.70 19.15 C 61.53 18.52 61.35 17.90 61.17 17.27 Z"
     id="path12" />
  <path
     fill="#575e65"
     d=" M 59.14 20.25 C 62.43 20.34 57.65 23.34 59.14 20.25 Z"
     id="path14" />
  <path
     fill="#788189"
     d=" M 65.08 21.87 C 65.04 20.91 65.45 20.18 66.30 19.70 C 65.90 24.26 66.11 28.86 65.64 33.42 C 64.66 29.66 64.96 25.72 65.08 21.87 Z"
     id="path16" />
  <path
     fill="#ffffff"
     d=" M 61.89 22.30 C 62.29 22.05 63.10 21.56 63.51 21.32 C 63.24 25.04 63.53 28.80 63.12 32.51 C 62.83 32.74 62.27 33.19 61.99 33.42 C 61.83 29.71 61.90 26.00 61.89 22.30 Z"
     id="path18" />
  <path
     fill="#707880"
     d=" M 67.21 21.32 C 69.35 24.72 68.97 29.88 67.20 33.43 C 66.90 29.40 66.92 25.35 67.21 21.32 Z"
     id="path20" />
  <path
     fill="#708088"
     d=" M 73.31 25.08 C 73.99 24.54 76.48 24.86 75.26 26.08 C 74.28 26.81 73.18 27.10 71.96 26.96 C 70.49 26.42 72.65 25.16 73.31 25.08 Z"
     id="path22" />
  <path
     fill="#ceffdd"
     d=" M 70.25 30.22 C 70.84 30.82 70.84 30.82 70.25 30.22 Z"
     id="path24" />
  <path
     fill="#485050"
     d=" M 52.34 31.01 C 54.79 30.99 57.23 30.98 59.67 30.92 C 58.07 32.99 55.49 32.68 53.15 32.60 C 53.08 32.77 52.94 33.11 52.87 33.28 C 51.46 35.76 51.56 38.62 51.72 41.37 C 53.17 41.51 54.65 41.55 56.07 41.93 C 58.48 43.89 60.14 46.60 61.83 49.16 C 63.48 51.59 64.10 55.03 67.14 56.19 C 68.66 56.03 70.17 55.75 71.67 55.47 C 72.46 55.81 73.25 56.16 74.04 56.50 C 73.71 57.81 73.38 59.12 73.08 60.43 C 71.13 59.71 69.11 59.17 67.11 58.61 L 67.59 60.11 C 66.96 60.42 65.71 61.05 65.08 61.36 C 65.19 60.68 65.40 59.33 65.51 58.65 C 65.53 58.55 65.57 58.36 65.59 58.26 L 65.67 57.83 C 65.00 57.47 63.67 56.75 63.00 56.39 C 63.46 57.83 63.93 59.27 64.40 60.70 C 63.46 61.45 62.53 62.20 61.59 62.95 C 62.27 62.99 63.64 63.06 64.32 63.10 C 64.67 68.66 64.30 74.25 64.89 79.81 C 64.91 80.11 64.95 80.71 64.97 81.01 C 65.04 81.76 65.19 83.25 65.26 84.00 L 66.33 83.03 C 66.27 84.69 66.23 86.36 66.20 88.04 C 66.56 87.79 67.28 87.30 67.64 87.06 C 68.44 88.31 69.24 89.56 70.04 90.80 C 68.68 90.73 67.32 90.67 65.96 90.64 C 65.68 90.49 65.11 90.18 64.83 90.03 C 63.88 89.29 62.06 89.05 62.13 87.56 C 62.89 87.23 64.41 86.56 65.18 86.23 C 63.77 86.12 62.36 86.00 60.95 85.88 C 60.95 86.66 60.96 88.21 60.96 88.99 C 60.11 89.05 58.41 89.16 57.56 89.21 C 57.89 89.42 58.57 89.85 58.91 90.06 C 59.01 92.07 58.74 94.06 58.41 96.04 C 58.27 97.37 60.07 97.46 60.84 98.17 C 60.91 100.50 61.10 102.84 61.85 105.06 C 62.11 102.37 62.17 99.67 62.12 96.97 C 62.97 98.03 63.83 99.07 64.70 100.11 C 64.71 101.38 64.72 102.66 64.70 103.94 L 64.50 105.64 C 64.24 108.21 64.19 110.80 64.04 113.39 C 61.24 112.80 62.21 109.65 61.81 107.60 L 61.11 108.03 C 60.87 108.54 60.39 109.58 60.15 110.09 C 60.61 112.37 60.78 114.69 60.98 117.00 C 60.42 115.22 60.04 113.39 59.79 111.54 C 59.41 113.20 58.98 114.86 58.57 116.52 C 58.15 116.16 57.31 115.43 56.89 115.07 L 56.48 113.23 L 55.28 113.33 C 55.87 112.71 56.47 112.10 57.08 111.49 L 57.42 113.90 C 58.47 111.93 57.00 109.96 56.75 108.00 C 56.31 108.00 55.44 108.00 55.00 108.00 C 55.00 106.67 55.00 105.33 55.00 104.00 C 55.50 104.00 56.50 103.99 57.00 103.99 C 57.00 101.66 57.00 99.34 57.00 97.02 C 56.50 97.01 55.50 97.00 55.00 97.00 C 55.00 94.33 55.00 91.67 55.00 89.00 C 55.50 89.00 56.49 89.00 56.99 89.00 C 56.99 88.50 57.00 87.50 57.00 87.00 C 57.74 87.00 59.20 87.00 59.93 87.00 C 59.98 86.38 60.08 85.13 60.13 84.51 C 61.22 83.24 60.93 81.54 61.08 80.02 C 60.56 80.01 59.52 80.00 59.00 80.00 C 59.10 76.28 58.71 72.54 59.21 68.85 C 59.53 67.42 59.84 65.99 60.13 64.56 C 59.03 65.30 57.89 65.99 57.04 67.02 L 56.92 67.89 C 55.28 67.99 53.64 68.02 52.00 68.04 C 52.00 66.69 52.00 65.35 52.00 64.00 C 54.33 64.00 56.66 64.00 58.99 64.00 C 58.99 63.50 59.00 62.50 59.00 62.00 C 59.50 62.00 60.50 62.00 61.00 61.99 C 61.00 58.00 61.00 54.00 61.00 50.00 C 59.67 50.00 58.33 50.00 57.00 50.00 C 57.00 48.33 57.00 46.67 57.00 45.00 C 55.44 45.00 53.90 45.00 52.35 45.00 C 51.95 43.62 50.99 42.55 50.03 41.53 C 49.98 39.18 49.98 36.82 50.03 34.47 C 50.99 33.45 51.94 32.38 52.34 31.01 Z"
     id="path26" />
  <path
     fill="#554663"
     d=" M 72.35 37.67 C 71.22 36.01 72.82 34.33 73.66 32.97 C 73.41 34.04 73.16 35.11 72.89 36.17 C 74.66 36.66 76.46 37.08 78.29 37.32 C 76.90 38.95 73.58 39.86 72.35 37.67 Z"
     id="path28" />
  <path
     fill="#686870"
     d=" M 61.70 35.70 C 62.51 33.52 65.25 34.52 67.03 34.22 C 66.88 34.60 66.60 35.36 66.45 35.74 L 66.33 36.65 C 66.96 37.29 67.61 37.91 68.27 38.53 L 68.57 38.81 C 66.43 39.98 64.36 41.38 61.97 41.97 C 58.65 41.50 60.63 37.49 61.70 35.70 Z"
     id="path30" />
  <path
     fill="#e0e8f0"
     d=" M 67.03 34.22 L 67.77 34.22 C 67.79 34.80 67.82 35.96 67.83 36.54 C 67.49 36.34 66.80 35.94 66.45 35.74 C 66.60 35.36 66.88 34.60 67.03 34.22 Z"
     id="path32" />
  <path
     fill="#686870"
     d=" M 53.11 34.94 C 54.76 34.94 56.42 34.94 58.07 34.94 C 57.72 35.44 57.02 36.43 56.67 36.93 C 55.47 36.96 54.26 36.99 53.06 37.02 C 53.07 36.50 53.10 35.46 53.11 34.94 Z"
     id="path34" />
  <path
     fill="#9c613a"
     d=" M 68.27 38.53 C 68.90 36.90 69.81 35.41 71.04 34.16 C 70.89 36.02 70.67 37.86 70.35 39.70 L 68.57 38.81 L 68.27 38.53 Z"
     id="path36" />
  <path
     fill="#686870"
     d=" M 53.29 38.31 C 54.09 37.33 56.49 37.09 56.75 38.65 C 56.55 40.63 52.15 40.55 53.29 38.31 Z"
     id="path38" />
  <path
     fill="#ffffff"
     d=" M 68.57 38.81 L 70.35 39.70 C 70.68 39.86 71.34 40.19 71.67 40.36 C 71.98 40.90 72.59 42.00 72.89 42.54 C 72.94 43.31 73.03 44.83 73.07 45.60 C 72.51 45.81 71.38 46.23 70.81 46.44 C 70.83 44.66 70.86 42.87 70.89 41.09 L 69.75 41.23 C 69.45 40.62 68.86 39.41 68.57 38.81 Z"
     id="path40" />
  <path
     fill="#756850"
     d=" M 74.44 40.20 C 75.63 39.29 76.34 39.51 76.55 40.85 C 75.35 41.77 74.65 41.55 74.44 40.20 Z"
     id="path42" />
  <path
     fill="#504848"
     d=" M 69.75 41.23 L 70.89 41.09 C 70.86 42.87 70.83 44.66 70.81 46.44 C 71.38 46.23 72.51 45.81 73.07 45.60 L 73.76 44.89 C 75.28 44.88 76.80 44.86 78.32 44.83 C 78.33 44.32 78.35 43.31 78.36 42.80 L 79.17 42.93 C 79.09 43.46 78.94 44.51 78.86 45.04 C 79.54 45.04 80.89 45.03 81.56 45.03 C 84.45 46.72 86.67 49.22 89.11 51.46 C 89.08 51.97 89.01 53.01 88.98 53.53 C 88.76 54.80 88.53 56.07 88.35 57.34 C 88.32 55.59 88.24 53.84 88.16 52.09 C 87.66 51.73 86.67 51.02 86.17 50.66 C 85.77 51.66 85.37 52.66 84.96 53.66 C 84.64 53.34 84.00 52.70 83.68 52.38 C 82.80 52.74 81.92 53.10 81.04 53.45 C 80.92 54.16 80.69 55.58 80.57 56.29 C 81.07 56.09 82.06 55.68 82.56 55.48 C 82.70 55.90 82.97 56.74 83.10 57.17 C 80.36 57.84 77.23 58.74 76.85 62.02 C 77.12 64.02 77.33 66.09 78.29 67.90 C 78.62 68.57 78.95 69.25 79.29 69.92 L 81.91 69.24 C 81.89 69.88 81.83 71.15 81.80 71.79 L 80.77 72.22 C 82.29 74.41 83.47 76.81 84.02 79.44 C 83.30 80.45 82.59 81.47 81.89 82.48 C 81.86 84.48 81.87 86.48 81.75 88.48 L 80.86 87.37 C 80.81 86.93 80.71 86.05 80.66 85.61 C 80.30 85.79 79.57 86.13 79.20 86.31 C 80.43 84.08 81.72 81.90 82.87 79.63 C 82.65 78.74 82.41 77.85 82.14 76.97 C 82.00 76.63 81.72 75.95 81.58 75.62 C 81.09 73.60 79.91 71.97 78.10 70.95 C 77.46 71.28 76.20 71.93 75.57 72.26 L 74.55 70.92 C 74.24 73.47 73.77 75.99 73.24 78.50 C 73.57 78.75 74.22 79.25 74.54 79.50 C 73.24 80.78 73.47 82.59 73.45 84.25 C 74.36 84.31 76.19 84.42 77.10 84.47 L 76.55 84.95 C 76.14 85.26 75.33 85.88 74.92 86.19 C 74.46 85.83 73.54 85.11 73.08 84.75 C 72.51 85.00 71.37 85.50 70.80 85.75 C 70.64 86.10 70.32 86.80 70.16 87.15 C 69.53 87.13 68.27 87.08 67.64 87.06 C 69.47 85.81 71.39 84.72 73.31 83.64 C 72.33 82.71 71.33 81.80 70.33 80.89 C 72.00 77.56 74.33 74.17 73.64 70.25 C 74.21 70.36 75.33 70.57 75.90 70.68 C 75.83 68.83 75.71 66.98 75.74 65.14 C 76.07 60.83 77.07 56.61 77.40 52.31 C 76.42 50.34 75.29 48.44 74.20 46.53 C 73.01 47.40 71.83 48.27 70.65 49.14 C 70.76 50.41 70.90 51.67 70.89 52.94 C 69.80 54.19 68.42 55.15 67.14 56.19 C 66.63 54.87 66.09 53.57 65.52 52.28 C 67.08 52.12 67.74 51.40 67.48 50.13 C 67.06 49.99 66.23 49.72 65.81 49.59 C 66.93 46.71 67.35 43.41 69.75 41.23 Z"
     id="path44" />
  <path
     fill="#f0b8a8"
     d=" M 74.75 42.14 C 75.96 42.36 77.16 42.58 78.36 42.80 C 78.35 43.31 78.33 44.32 78.32 44.83 C 76.80 44.86 75.28 44.88 73.76 44.89 C 74.01 44.20 74.51 42.83 74.75 42.14 Z"
     id="path46" />
  <path
     fill="#686870"
     d=" M 62.46 45.33 C 64.53 44.23 65.09 48.64 63.09 48.89 C 61.61 48.53 61.56 46.29 62.46 45.33 Z"
     id="path48" />
  <path
     fill="#707070"
     d=" M 70.65 49.14 C 71.83 48.27 73.01 47.40 74.20 46.53 C 75.29 48.44 76.42 50.34 77.40 52.31 C 76.04 55.04 74.81 57.84 73.72 60.69 C 73.56 60.63 73.24 60.50 73.08 60.43 C 73.38 59.12 73.71 57.81 74.04 56.50 C 73.25 56.16 72.46 55.81 71.67 55.47 C 70.17 55.75 68.66 56.03 67.14 56.19 C 68.42 55.15 69.80 54.19 70.89 52.94 C 70.90 51.67 70.76 50.41 70.65 49.14 Z"
     id="path50" />
  <path
     fill="#aeaeb3"
     d=" M 65.52 52.28 C 64.88 51.32 64.97 50.42 65.81 49.59 C 66.23 49.72 67.06 49.99 67.48 50.13 C 67.74 51.40 67.08 52.12 65.52 52.28 Z"
     id="path52" />
  <path
     fill="#707070"
     d=" M 86.17 50.66 C 86.67 51.02 87.66 51.73 88.16 52.09 C 88.24 53.84 88.32 55.59 88.35 57.34 C 88.32 57.71 88.26 58.43 88.22 58.79 C 87.68 58.54 87.14 58.29 86.60 58.04 C 85.40 57.95 84.18 57.74 83.10 57.17 C 82.97 56.74 82.70 55.90 82.56 55.48 C 82.06 55.68 81.07 56.09 80.57 56.29 C 80.69 55.58 80.92 54.16 81.04 53.45 C 81.92 53.10 82.80 52.74 83.68 52.38 C 84.00 52.70 84.64 53.34 84.96 53.66 C 85.37 52.66 85.77 51.66 86.17 50.66 Z"
     id="path54" />
  <path
     fill="#484038"
     d=" M 77.40 52.31 C 77.07 56.61 76.07 60.83 75.74 65.14 C 74.81 66.14 73.77 67.02 72.74 67.90 C 72.64 66.65 72.54 65.40 72.46 64.15 C 71.94 64.71 70.90 65.85 70.38 66.42 C 70.28 65.31 70.08 63.11 69.98 62.01 C 69.79 63.75 69.63 65.49 69.48 67.24 C 70.74 67.61 72.01 67.99 73.27 68.37 C 71.69 68.81 70.11 69.25 68.53 69.69 C 68.60 67.52 68.65 65.36 68.71 63.19 C 68.14 63.18 67.00 63.17 66.42 63.16 C 65.90 63.14 64.85 63.11 64.32 63.10 C 63.64 63.06 62.27 62.99 61.59 62.95 C 62.53 62.20 63.46 61.45 64.40 60.70 C 63.93 59.27 63.46 57.83 63.00 56.39 C 63.67 56.75 65.00 57.47 65.67 57.83 L 65.59 58.26 C 65.57 58.36 65.53 58.55 65.51 58.65 C 65.40 59.33 65.19 60.68 65.08 61.36 L 64.99 61.96 C 66.32 62.90 68.74 61.85 67.59 60.11 L 67.11 58.61 C 69.11 59.17 71.13 59.71 73.08 60.43 C 73.24 60.50 73.56 60.63 73.72 60.69 C 74.81 57.84 76.04 55.04 77.40 52.31 Z"
     id="path56" />
  <path
     fill="#403830"
     d=" M 88.98 53.53 L 89.82 52.52 C 89.92 54.85 90.26 57.28 89.48 59.54 C 88.17 61.51 86.58 63.36 84.39 64.38 C 83.20 66.65 81.15 68.23 79.29 69.92 C 78.95 69.25 78.62 68.57 78.29 67.90 C 78.64 67.93 79.34 67.98 79.68 68.00 C 80.26 67.63 81.42 66.89 82.00 66.52 C 83.22 64.43 84.05 62.15 84.98 59.93 C 84.55 60.36 83.69 61.21 83.27 61.64 C 83.10 61.13 82.76 60.12 82.59 59.61 C 82.17 59.93 81.33 60.56 80.92 60.88 L 80.60 61.25 C 80.23 61.93 79.48 63.28 79.11 63.96 C 78.54 63.47 77.41 62.50 76.85 62.02 C 77.23 58.74 80.36 57.84 83.10 57.17 C 84.18 57.74 85.40 57.95 86.60 58.04 C 87.14 58.29 87.68 58.54 88.22 58.79 C 88.26 58.43 88.32 57.71 88.35 57.34 C 88.53 56.07 88.76 54.80 88.98 53.53 Z"
     id="path58" />
  <path
     fill="#a8a8b0"
     d=" M 65.51 58.65 C 65.53 58.55 65.57 58.36 65.59 58.26 C 65.57 58.36 65.53 58.55 65.51 58.65 Z"
     id="path60" />
  <path
     fill="#a06858"
     d=" M 80.27 59.28 C 80.77 59.80 80.77 59.80 80.27 59.28 Z"
     id="path62" />
  <path
     fill="#965255"
     d=" M 82.59 59.61 C 82.76 60.12 83.10 61.13 83.27 61.64 C 82.38 63.44 80.53 62.96 80.92 60.88 C 81.33 60.56 82.17 59.93 82.59 59.61 Z"
     id="path64" />
  <path
     fill="#a0a0a6"
     d=" M 67.59 60.11 C 68.74 61.85 66.32 62.90 64.99 61.96 L 65.08 61.36 C 65.71 61.05 66.96 60.42 67.59 60.11 Z"
     id="path66" />
  <path
     fill="#f8e8e0"
     d=" M 83.27 61.64 C 83.69 61.21 84.55 60.36 84.98 59.93 C 84.05 62.15 83.22 64.43 82.00 66.52 C 81.37 66.11 80.09 65.31 79.45 64.91 C 79.82 63.69 80.19 62.46 80.60 61.25 L 80.92 60.88 C 80.53 62.96 82.38 63.44 83.27 61.64 Z"
     id="path68" />
  <path
     fill="#f0b8a8"
     d=" M 79.11 63.96 C 79.48 63.28 80.23 61.93 80.60 61.25 C 80.19 62.46 79.82 63.69 79.45 64.91 C 80.09 65.31 81.37 66.11 82.00 66.52 C 81.42 66.89 80.26 67.63 79.68 68.00 C 79.34 67.98 78.64 67.93 78.29 67.90 C 77.33 66.09 77.12 64.02 76.85 62.02 C 77.41 62.50 78.54 63.47 79.11 63.96 Z"
     id="path70" />
  <path
     fill="#e0e8f0"
     d=" M 69.48 67.24 C 69.63 65.49 69.79 63.75 69.98 62.01 C 70.08 63.11 70.28 65.31 70.38 66.42 C 70.90 65.85 71.94 64.71 72.46 64.15 C 72.54 65.40 72.64 66.65 72.74 67.90 C 73.77 67.02 74.81 66.14 75.74 65.14 C 75.71 66.98 75.83 68.83 75.90 70.68 C 75.33 70.57 74.21 70.36 73.64 70.25 C 74.33 74.17 72.00 77.56 70.33 80.89 C 68.83 81.24 67.43 81.94 66.33 83.03 L 65.26 84.00 C 65.19 83.25 65.04 81.76 64.97 81.01 C 64.95 80.71 64.91 80.11 64.89 79.81 C 65.94 77.13 68.83 74.50 67.58 71.43 C 66.70 68.77 66.50 65.95 66.42 63.16 C 67.00 63.17 68.14 63.18 68.71 63.19 C 68.65 65.36 68.60 67.52 68.53 69.69 C 70.11 69.25 71.69 68.81 73.27 68.37 C 72.01 67.99 70.74 67.61 69.48 67.24 Z"
     id="path72" />
  <path
     fill="#888890"
     d=" M 64.32 63.10 C 64.85 63.11 65.90 63.14 66.42 63.16 C 66.50 65.95 66.70 68.77 67.58 71.43 C 68.83 74.50 65.94 77.13 64.89 79.81 C 64.30 74.25 64.67 68.66 64.32 63.10 Z"
     id="path74" />
  <path
     fill="#351818"
     d=" M 57.04 67.02 C 57.89 65.99 59.03 65.30 60.13 64.56 C 59.84 65.99 59.53 67.42 59.21 68.85 C 58.67 68.93 57.58 69.10 57.03 69.18 L 56.92 67.89 C 58.83 69.37 59.17 65.68 57.04 67.02 Z"
     id="path76" />
  <path
     fill="#b41818"
     d=" M 57.04 67.02 C 59.17 65.68 58.83 69.37 56.92 67.89 L 57.04 67.02 Z"
     id="path78" />
  <path
     fill="#e0e8f0"
     d=" M 75.57 72.26 C 76.20 71.93 77.46 71.28 78.10 70.95 C 79.91 71.97 81.09 73.60 81.58 75.62 C 81.72 75.95 82.00 76.63 82.14 76.97 C 82.41 77.85 82.65 78.74 82.87 79.63 C 80.89 78.89 78.27 79.00 76.87 77.18 C 76.18 75.62 76.01 73.90 75.57 72.26 Z"
     id="path80" />
  <path
     fill="#b0c8e0"
     d=" M 74.55 70.92 L 75.57 72.26 C 76.01 73.90 76.18 75.62 76.87 77.18 C 78.27 79.00 80.89 78.89 82.87 79.63 C 81.72 81.90 80.43 84.08 79.20 86.31 C 78.54 85.97 77.21 85.29 76.55 84.95 L 77.10 84.47 C 77.32 82.32 76.52 80.49 74.54 79.50 C 74.22 79.25 73.57 78.75 73.24 78.50 C 73.77 75.99 74.24 73.47 74.55 70.92 Z"
     id="path82" />
  <path
     fill="#c9ffda"
     d=" M 72.11 80.23 C 75.42 80.29 70.64 83.31 72.11 80.23 Z"
     id="path84" />
  <path
     fill="#c3dbed"
     d=" M 74.54 79.50 C 76.52 80.49 77.32 82.32 77.10 84.47 C 76.19 84.42 74.36 84.31 73.45 84.25 C 73.47 82.59 73.24 80.78 74.54 79.50 Z"
     id="path86" />
  <path
     fill="#bfcfdd"
     d=" M 66.33 83.03 C 67.43 81.94 68.83 81.24 70.33 80.89 C 71.33 81.80 72.33 82.71 73.31 83.64 C 71.39 84.72 69.47 85.81 67.64 87.06 C 67.28 87.30 66.56 87.79 66.20 88.04 C 66.23 86.36 66.27 84.69 66.33 83.03 Z"
     id="path88" />
  <path
     fill="#f8e8e0"
     d=" M 70.80 85.75 C 71.37 85.50 72.51 85.00 73.08 84.75 C 73.54 85.11 74.46 85.83 74.92 86.19 C 75.83 86.90 76.75 87.60 77.67 88.29 C 76.70 89.52 75.71 90.73 74.73 91.94 C 73.93 91.10 73.13 90.25 72.33 89.42 C 71.61 88.66 70.89 87.91 70.16 87.15 C 70.32 86.80 70.64 86.10 70.80 85.75 Z"
     id="path90" />
  <path
     fill="#403830"
     d=" M 74.92 86.19 C 75.33 85.88 76.14 85.26 76.55 84.95 C 77.21 85.29 78.54 85.97 79.20 86.31 C 79.57 86.13 80.30 85.79 80.66 85.61 C 80.71 86.05 80.81 86.93 80.86 87.37 C 80.92 88.97 81.10 90.58 81.97 91.97 C 80.38 91.81 78.78 91.66 77.19 91.52 C 77.91 94.15 78.91 96.70 80.17 99.12 C 81.24 98.22 82.31 97.32 83.38 96.42 C 83.95 96.97 84.52 97.52 85.09 98.08 C 85.09 97.19 85.10 95.41 85.10 94.52 C 85.36 95.21 85.89 96.59 86.15 97.28 C 85.85 98.13 85.53 98.97 85.20 99.81 C 86.32 100.98 87.45 102.14 88.59 103.30 C 87.91 103.22 86.56 103.04 85.88 102.96 C 83.36 103.49 81.07 104.70 78.82 105.91 C 78.52 106.49 78.22 107.08 77.92 107.66 C 80.68 106.57 83.64 105.80 86.01 103.91 C 86.17 105.27 86.50 106.58 86.99 107.87 C 86.34 107.65 85.05 107.22 84.40 107.01 C 82.76 108.20 81.15 109.44 79.67 110.83 C 81.54 110.29 83.37 109.66 85.18 108.97 C 85.19 109.70 85.21 111.16 85.21 111.89 C 84.16 112.26 83.09 112.59 82.01 112.89 C 80.50 112.90 78.98 112.89 77.47 112.88 C 77.88 112.60 78.72 112.05 79.14 111.77 C 77.85 110.11 76.64 108.38 75.42 106.67 C 74.71 108.28 73.98 109.88 73.25 111.48 C 73.61 109.81 73.96 108.13 74.19 106.44 L 73.28 106.07 C 73.76 104.99 74.85 103.99 74.47 102.70 C 73.12 101.82 71.56 101.37 70.02 100.96 C 69.53 100.85 68.54 100.62 68.04 100.51 C 67.48 100.44 66.37 100.30 65.81 100.23 C 65.54 100.20 64.98 100.14 64.70 100.11 C 63.83 99.07 62.97 98.03 62.12 96.97 C 62.17 99.67 62.11 102.37 61.85 105.06 C 61.10 102.84 60.91 100.50 60.84 98.17 C 60.07 97.46 58.27 97.37 58.41 96.04 C 60.31 95.71 62.23 95.46 64.15 95.23 C 64.19 95.48 64.27 95.98 64.31 96.23 C 65.26 96.79 66.25 97.29 67.23 97.80 C 67.58 97.42 67.95 97.05 68.31 96.67 C 68.72 96.90 69.55 97.34 69.96 97.57 C 71.73 96.23 72.72 94.19 73.84 92.34 C 73.12 92.02 71.69 91.37 70.98 91.05 C 71.32 90.64 71.99 89.83 72.33 89.42 C 73.13 90.25 73.93 91.10 74.73 91.94 C 75.71 90.73 76.70 89.52 77.67 88.29 C 76.75 87.60 75.83 86.90 74.92 86.19 Z"
     id="path92" />
  <path
     fill="#272f2f"
     d=" M 60.95 85.88 C 62.36 86.00 63.77 86.12 65.18 86.23 C 64.41 86.56 62.89 87.23 62.13 87.56 C 62.06 89.05 63.88 89.29 64.83 90.03 L 64.23 90.05 C 62.46 90.11 60.68 90.12 58.91 90.06 C 58.57 89.85 57.89 89.42 57.56 89.21 C 58.41 89.16 60.11 89.05 60.96 88.99 C 60.96 88.21 60.95 86.66 60.95 85.88 Z"
     id="path94" />
  <path
     fill="#706048"
     d=" M 67.64 87.06 C 68.27 87.08 69.53 87.13 70.16 87.15 C 70.89 87.91 71.61 88.66 72.33 89.42 C 71.99 89.83 71.32 90.64 70.98 91.05 C 71.69 91.37 73.12 92.02 73.84 92.34 C 72.72 94.19 71.73 96.23 69.96 97.57 C 69.55 97.34 68.72 96.90 68.31 96.67 C 67.95 97.05 67.58 97.42 67.23 97.80 C 66.25 97.29 65.26 96.79 64.31 96.23 C 64.27 95.98 64.19 95.48 64.15 95.23 L 63.95 93.43 C 64.25 93.55 64.85 93.78 65.15 93.90 C 65.52 92.84 65.74 91.73 65.96 90.64 C 67.32 90.67 68.68 90.73 70.04 90.80 C 69.24 89.56 68.44 88.31 67.64 87.06 Z"
     id="path96" />
  <path
     fill="#d89080"
     d=" M 79.29 89.26 C 79.84 89.81 79.84 89.81 79.29 89.26 Z"
     id="path98" />
  <path
     fill="#686870"
     d=" M 58.91 90.06 C 60.68 90.12 62.46 90.11 64.23 90.05 C 63.84 91.15 63.75 92.28 63.95 93.43 L 64.15 95.23 C 62.23 95.46 60.31 95.71 58.41 96.04 C 58.74 94.06 59.01 92.07 58.91 90.06 Z"
     id="path100" />
  <path
     fill="#8f8587"
     d=" M 64.23 90.05 L 64.83 90.03 C 65.11 90.18 65.68 90.49 65.96 90.64 C 65.74 91.73 65.52 92.84 65.15 93.90 C 64.85 93.78 64.25 93.55 63.95 93.43 C 63.75 92.28 63.84 91.15 64.23 90.05 Z"
     id="path102" />
  <path
     fill="#706048"
     d=" M 77.19 91.52 C 78.78 91.66 80.38 91.81 81.97 91.97 L 82.64 92.04 C 83.45 92.82 84.27 93.59 85.10 94.35 L 85.10 94.52 C 85.10 95.41 85.09 97.19 85.09 98.08 C 84.52 97.52 83.95 96.97 83.38 96.42 C 82.31 97.32 81.24 98.22 80.17 99.12 C 78.91 96.70 77.91 94.15 77.19 91.52 Z"
     id="path104" />
  <path
     fill="#a8a8a8"
     d=" M 67.32 94.20 C 67.82 94.73 67.82 94.73 67.32 94.20 Z"
     id="path106" />
  <path
     fill="#a8a8a8"
     d=" M 70.31 94.19 C 70.82 94.72 70.82 94.72 70.31 94.19 Z"
     id="path108" />
  <path
     fill="#a8a8a8"
     d=" M 82.21 94.16 C 82.76 94.64 82.76 94.64 82.21 94.16 Z"
     id="path110" />
  <path
     fill="#68727a"
     d=" M 75.09 95.35 C 76.29 94.75 77.58 96.72 76.83 97.72 C 75.63 98.31 74.37 96.34 75.09 95.35 Z"
     id="path112" />
  <path
     fill="#707880"
     d=" M 86.15 97.28 L 86.34 96.77 C 88.65 98.29 91.23 99.81 92.30 102.51 C 91.03 103.69 89.80 104.90 88.58 106.13 C 87.72 105.39 86.85 104.67 86.01 103.91 L 85.88 102.96 C 86.56 103.04 87.91 103.22 88.59 103.30 C 87.45 102.14 86.32 100.98 85.20 99.81 C 85.53 98.97 85.85 98.13 86.15 97.28 Z"
     id="path114" />
  <path
     fill="#686870"
     d=" M 58.41 98.43 C 59.82 99.09 59.78 102.89 58.40 103.58 C 57.63 102.05 57.62 99.95 58.41 98.43 Z"
     id="path116" />
  <path
     fill="#7d6544"
     d=" M 74.79 98.70 C 76.48 99.21 78.13 99.90 79.64 100.83 C 81.04 100.98 82.44 101.11 83.85 101.24 C 83.17 101.86 82.50 102.48 81.84 103.10 C 78.79 103.05 74.36 102.94 74.79 98.70 Z"
     id="path118" />
  <path
     fill="#f0d0c8"
     d=" M 64.70 100.11 C 64.98 100.14 65.54 100.20 65.81 100.23 C 65.75 101.41 65.69 102.59 65.62 103.77 C 67.23 104.19 68.83 104.61 70.42 105.09 C 70.99 109.27 70.21 113.55 67.81 117.06 C 67.72 117.20 67.55 117.49 67.47 117.63 C 65.89 117.39 64.30 117.21 62.70 117.29 C 65.91 113.76 66.49 108.97 66.53 104.40 L 64.70 103.94 C 64.72 102.66 64.71 101.38 64.70 100.11 Z"
     id="path120" />
  <path
     fill="#4b3e60"
     d=" M 65.81 100.23 C 66.37 100.30 67.48 100.44 68.04 100.51 C 67.81 101.10 67.36 102.30 67.13 102.90 C 68.54 103.25 69.95 103.61 71.37 103.96 C 70.93 102.95 70.48 101.95 70.02 100.96 C 71.56 101.37 73.12 101.82 74.47 102.70 C 74.85 103.99 73.76 104.99 73.28 106.07 C 72.33 105.72 71.38 105.40 70.42 105.09 C 68.83 104.61 67.23 104.19 65.62 103.77 C 65.69 102.59 65.75 101.41 65.81 100.23 Z"
     id="path122" />
  <path
     fill="#685878"
     d=" M 67.13 102.90 C 67.36 102.30 67.81 101.10 68.04 100.51 C 68.54 100.62 69.53 100.85 70.02 100.96 C 70.48 101.95 70.93 102.95 71.37 103.96 C 69.95 103.61 68.54 103.25 67.13 102.90 Z"
     id="path124" />
  <path
     fill="#f0b8a8"
     d=" M 78.82 105.91 C 81.07 104.70 83.36 103.49 85.88 102.96 L 86.01 103.91 C 83.64 105.80 80.68 106.57 77.92 107.66 C 78.22 107.08 78.52 106.49 78.82 105.91 Z"
     id="path126" />
  <path
     fill="#86665f"
     d=" M 64.70 103.94 L 66.53 104.40 C 66.49 108.97 65.91 113.76 62.70 117.29 L 61.19 117.76 C 62.14 116.30 63.09 114.85 64.04 113.39 C 64.19 110.80 64.24 108.21 64.50 105.64 L 64.70 103.94 Z"
     id="path128" />
  <path
     fill="#d18b7b"
     d=" M 70.42 105.09 C 71.38 105.40 72.33 105.72 73.28 106.07 L 74.19 106.44 C 73.96 108.13 73.61 109.81 73.25 111.48 L 73.10 111.84 C 72.86 112.40 72.38 113.52 72.14 114.08 L 72.09 114.35 C 71.51 115.59 70.93 116.84 70.21 118.01 C 69.61 117.77 68.41 117.29 67.81 117.06 C 70.21 113.55 70.99 109.27 70.42 105.09 Z"
     id="path130" />
  <path
     fill="#ffffff"
     d=" M 75.42 106.67 C 76.64 108.38 77.85 110.11 79.14 111.77 C 78.72 112.05 77.88 112.60 77.47 112.88 C 76.97 113.06 75.98 113.44 75.48 113.62 C 74.25 114.47 73.05 115.36 71.84 116.24 L 72.09 114.35 L 72.14 114.08 C 72.38 113.52 72.86 112.40 73.10 111.84 L 73.25 111.48 C 73.98 109.88 74.71 108.28 75.42 106.67 Z"
     id="path132" />
  <path
     fill="#f0b8a8"
     d=" M 84.40 107.01 C 85.05 107.22 86.34 107.65 86.99 107.87 L 87.42 108.00 C 87.11 108.38 86.49 109.12 86.18 109.50 C 86.14 110.00 86.07 111.01 86.04 111.51 C 86.76 111.73 88.19 112.18 88.90 112.41 C 88.65 113.04 88.14 114.30 87.88 114.93 C 86.94 115.93 85.92 116.85 84.82 117.66 C 83.81 116.40 82.61 115.92 81.23 116.22 L 79.18 116.88 C 78.88 116.07 78.29 114.44 77.99 113.62 C 79.34 113.42 80.68 113.17 82.01 112.89 C 83.09 112.59 84.16 112.26 85.21 111.89 C 85.21 111.16 85.19 109.70 85.18 108.97 C 83.37 109.66 81.54 110.29 79.67 110.83 C 81.15 109.44 82.76 108.20 84.40 107.01 Z"
     id="path134" />
  <path
     fill="#787880"
     d=" M 58.15 108.40 C 61.47 108.59 56.58 111.37 58.15 108.40 Z"
     id="path136" />
  <path
     fill="#787880"
     d=" M 60.15 110.09 C 60.39 109.58 60.87 108.54 61.11 108.03 C 61.06 108.47 60.96 109.37 60.91 109.82 L 60.15 110.09 Z"
     id="path138" />
  <path
     fill="#182020"
     d=" M 61.11 108.03 L 61.81 107.60 C 62.21 109.65 61.24 112.80 64.04 113.39 C 63.09 114.85 62.14 116.30 61.19 117.76 L 60.98 117.00 C 60.78 114.69 60.61 112.37 60.15 110.09 L 60.91 109.82 C 60.96 109.37 61.06 108.47 61.11 108.03 Z"
     id="path140" />
  <path
     fill="#485050"
     d=" M 87.42 108.00 L 87.61 107.77 C 87.70 109.16 88.08 110.54 88.94 111.65 L 89.66 109.74 C 90.32 110.19 91.64 111.07 92.30 111.52 C 92.25 110.79 92.15 109.34 92.11 108.62 C 92.81 109.37 93.49 110.15 94.14 110.95 C 93.81 112.71 91.39 114.03 90.34 111.88 C 89.72 112.89 89.14 113.92 88.64 115.00 L 87.88 114.93 C 88.14 114.30 88.65 113.04 88.90 112.41 C 88.19 112.18 86.76 111.73 86.04 111.51 C 86.07 111.01 86.14 110.00 86.18 109.50 C 86.49 109.12 87.11 108.38 87.42 108.00 Z"
     id="path142" />
  <path
     fill="#7b858c"
     d=" M 54.05 110.69 C 56.91 109.67 53.58 114.45 54.05 110.69 Z"
     id="path144" />
  <path
     fill="#606b73"
     d=" M 58.57 116.52 C 58.98 114.86 59.41 113.20 59.79 111.54 C 60.04 113.39 60.42 115.22 60.98 117.00 L 61.19 117.76 C 61.17 118.29 61.14 119.33 61.12 119.85 C 60.10 119.33 59.08 118.80 58.06 118.28 C 57.68 119.09 57.30 119.91 56.92 120.73 C 56.12 119.98 55.33 119.22 54.56 118.44 L 54.45 118.32 C 54.93 116.96 55.39 115.59 55.80 114.21 L 56.89 115.07 C 57.31 115.43 58.15 116.16 58.57 116.52 Z"
     id="path146" />
  <path
     fill="#583838"
     d=" M 72.14 114.08 C 72.38 113.52 72.86 112.40 73.10 111.84 C 72.86 112.40 72.38 113.52 72.14 114.08 Z"
     id="path148" />
  <path
     fill="#506068"
     d=" M 52.12 114.39 C 52.58 113.89 53.49 112.89 53.94 112.38 C 53.61 114.27 52.80 116.37 54.16 118.09 C 53.52 118.59 52.25 119.59 51.61 120.09 C 52.13 120.56 53.17 121.50 53.69 121.97 C 51.28 123.71 52.34 127.58 53.48 129.84 C 53.44 130.44 53.34 131.64 53.30 132.24 L 52.54 132.10 L 52.06 132.01 C 53.57 130.58 51.93 129.43 51.22 128.17 C 51.79 125.35 51.69 122.41 51.19 119.59 C 51.91 118.65 52.66 117.73 53.44 116.84 L 52.04 116.91 C 52.06 116.28 52.10 115.02 52.12 114.39 Z"
     id="path150" />
  <path
     fill="#580018"
     d=" M 75.48 113.62 C 75.98 113.44 76.97 113.06 77.47 112.88 C 78.98 112.89 80.50 112.90 82.01 112.89 C 80.68 113.17 79.34 113.42 77.99 113.62 C 78.29 114.44 78.88 116.07 79.18 116.88 L 81.23 116.22 C 80.27 117.21 79.35 118.24 78.44 119.28 C 80.20 119.71 81.96 120.14 83.71 120.60 C 83.99 119.87 84.54 118.40 84.82 117.66 C 85.92 116.85 86.94 115.93 87.88 114.93 C 87.82 116.09 87.43 117.12 86.70 118.04 L 88.37 118.12 C 87.73 120.35 85.90 122.20 83.51 122.31 C 81.89 123.51 79.87 122.85 78.05 122.72 L 77.29 123.88 L 76.61 123.71 C 76.51 123.72 76.32 123.74 76.22 123.74 L 75.08 124.19 C 74.88 124.28 74.49 124.44 74.29 124.52 C 73.82 124.72 72.86 125.12 72.38 125.32 C 71.15 125.95 69.91 126.59 68.67 127.24 C 68.99 129.70 69.19 132.20 68.92 134.68 C 68.06 136.01 66.28 135.82 64.95 136.20 L 65.63 133.77 C 65.10 134.46 64.06 135.84 63.54 136.53 C 62.66 138.73 63.07 141.16 63.08 143.46 C 64.87 145.22 64.25 148.27 62.05 149.36 L 62.25 148.48 C 62.40 147.86 62.70 146.61 62.85 145.98 C 61.94 142.90 61.49 139.68 62.01 136.48 C 60.80 136.31 59.59 136.17 58.40 135.93 C 57.78 135.76 56.56 135.43 55.95 135.26 C 56.08 134.82 56.34 133.95 56.47 133.52 C 58.20 134.10 59.94 134.68 61.68 135.26 C 61.97 134.11 62.27 132.95 62.57 131.80 C 64.51 134.76 66.51 129.02 63.12 130.09 C 63.67 128.66 64.19 127.22 64.65 125.76 C 65.22 127.02 67.38 127.35 67.87 125.84 C 68.24 124.32 66.23 123.69 65.10 124.18 C 65.53 122.64 65.91 121.08 66.34 119.54 C 66.63 119.07 67.19 118.11 67.47 117.63 C 67.55 117.49 67.72 117.20 67.81 117.06 C 68.41 117.29 69.61 117.77 70.21 118.01 C 70.93 116.84 71.51 115.59 72.09 114.35 L 71.84 116.24 C 73.05 115.36 74.25 114.47 75.48 113.62 Z"
     id="path152" />
  <path
     fill="#981030"
     d=" M 73.62 116.08 C 74.26 115.62 75.53 114.70 76.17 114.24 C 76.98 115.34 78.48 116.39 78.05 117.96 C 77.95 120.02 75.59 120.36 74.21 121.34 C 74.01 119.59 73.82 117.84 73.62 116.08 Z"
     id="path154" />
  <path
     fill="#96122e"
     d=" M 81.23 116.22 C 82.61 115.92 83.81 116.40 84.82 117.66 C 84.54 118.40 83.99 119.87 83.71 120.60 C 81.96 120.14 80.20 119.71 78.44 119.28 C 79.35 118.24 80.27 117.21 81.23 116.22 Z"
     id="path156" />
  <path
     fill="#414b53"
     d=" M 61.19 117.76 L 62.70 117.29 C 64.30 117.21 65.89 117.39 67.47 117.63 C 67.19 118.11 66.63 119.07 66.34 119.54 C 65.09 121.61 63.95 123.75 62.88 125.91 C 62.72 126.51 62.41 127.71 62.26 128.31 C 61.81 129.42 61.37 130.54 60.92 131.66 C 60.62 131.27 60.02 130.48 59.71 130.09 C 60.32 127.10 61.20 124.18 62.12 121.28 C 61.90 121.44 61.47 121.77 61.26 121.93 C 59.79 121.59 58.34 121.20 56.92 120.73 C 57.30 119.91 57.68 119.09 58.06 118.28 C 59.08 118.80 60.10 119.33 61.12 119.85 C 61.14 119.33 61.17 118.29 61.19 117.76 Z"
     id="path158" />
  <path
     fill="#a81834"
     d=" M 71.98 118.19 C 75.31 118.32 70.45 121.18 71.98 118.19 Z"
     id="path160" />
  <path
     fill="#243038"
     d=" M 54.56 118.44 C 55.33 119.22 56.12 119.98 56.92 120.73 C 58.34 121.20 59.79 121.59 61.26 121.93 C 60.82 122.27 59.96 122.95 59.53 123.29 C 59.26 125.16 58.99 127.02 58.84 128.91 C 59.06 129.21 59.50 129.79 59.71 130.09 C 60.02 130.48 60.62 131.27 60.92 131.66 C 61.37 130.54 61.81 129.42 62.26 128.31 C 62.41 127.71 62.72 126.51 62.88 125.91 C 63.95 123.75 65.09 121.61 66.34 119.54 C 65.91 121.08 65.53 122.64 65.10 124.18 C 64.99 124.57 64.76 125.36 64.65 125.76 C 64.19 127.22 63.67 128.66 63.12 130.09 C 62.98 130.52 62.71 131.37 62.57 131.80 C 62.27 132.95 61.97 134.11 61.68 135.26 C 59.94 134.68 58.20 134.10 56.47 133.52 C 56.58 133.12 56.79 132.32 56.89 131.92 C 57.77 129.33 57.79 126.60 57.44 123.92 C 56.35 122.72 55.30 121.48 54.51 120.06 L 54.56 118.44 Z"
     id="path162" />
  <path
     fill="#708088"
     d=" M 53.77 126.38 C 54.06 124.28 54.28 122.17 54.51 120.06 C 55.30 121.48 56.35 122.72 57.44 123.92 C 57.79 126.60 57.77 129.33 56.89 131.92 C 55.88 130.06 54.83 128.22 53.77 126.38 Z"
     id="path164" />
  <path
     fill="#5d6971"
     d=" M 61.26 121.93 C 61.47 121.77 61.90 121.44 62.12 121.28 C 61.20 124.18 60.32 127.10 59.71 130.09 C 59.50 129.79 59.06 129.21 58.84 128.91 C 58.99 127.02 59.26 125.16 59.53 123.29 C 59.96 122.95 60.82 122.27 61.26 121.93 Z"
     id="path166" />
  <path
     fill="#5d7089"
     d=" M 76.22 123.74 C 76.32 123.74 76.51 123.72 76.61 123.71 L 76.22 123.74 Z"
     id="path168" />
  <path
     fill="#494346"
     d=" M 65.10 124.18 C 66.23 123.69 68.24 124.32 67.87 125.84 C 67.38 127.35 65.22 127.02 64.65 125.76 C 64.76 125.36 64.99 124.57 65.10 124.18 Z"
     id="path170" />
  <path
     fill="#5d7089"
     d=" M 74.29 124.52 C 74.49 124.44 74.88 124.28 75.08 124.19 C 74.88 124.28 74.49 124.44 74.29 124.52 Z"
     id="path172" />
  <path
     fill="#707880"
     d=" M 62.26 128.31 C 62.41 127.71 62.72 126.51 62.88 125.91 C 62.72 126.51 62.41 127.71 62.26 128.31 Z"
     id="path174" />
  <path
     fill="#e0e8f0"
     d=" M 53.77 126.38 C 54.83 128.22 55.88 130.06 56.89 131.92 C 56.79 132.32 56.58 133.12 56.47 133.52 C 56.34 133.95 56.08 134.82 55.95 135.26 C 55.08 134.24 54.21 133.22 53.30 132.24 C 53.34 131.64 53.44 130.44 53.48 129.84 C 53.55 128.97 53.70 127.25 53.77 126.38 Z"
     id="path176" />
  <path
     fill="#464245"
     d=" M 63.12 130.09 C 66.51 129.02 64.51 134.76 62.57 131.80 C 62.71 131.37 62.98 130.52 63.12 130.09 Z"
     id="path178" />
  <path
     fill="#707880"
     d=" M 58.10 131.28 C 61.43 131.45 56.54 134.25 58.10 131.28 Z"
     id="path180" />
  <path
     fill="#981030"
     d=" M 67.17 131.19 C 68.39 131.88 68.34 132.58 67.02 133.29 C 65.79 132.60 65.84 131.90 67.17 131.19 Z"
     id="path182" />
  <path
     fill="#485050"
     d=" M 52.54 132.10 L 53.30 132.24 C 54.21 133.22 55.08 134.24 55.95 135.26 C 55.94 135.71 55.92 136.61 55.91 137.06 C 56.60 140.51 57.12 144.12 58.92 147.19 C 60.00 147.68 61.12 148.11 62.25 148.48 L 62.05 149.36 L 61.91 150.00 C 61.24 150.01 59.90 150.03 59.23 150.04 C 58.32 148.86 57.39 147.69 56.47 146.53 C 55.96 144.84 55.96 143.07 55.95 141.34 C 55.44 140.93 54.43 140.11 53.92 139.70 C 53.99 137.95 54.10 136.21 54.24 134.48 C 53.82 133.88 52.97 132.69 52.54 132.10 Z"
     id="path184" />
  <path
     fill="#d62c44"
     d=" M 55.95 135.26 C 56.56 135.43 57.78 135.76 58.40 135.93 C 57.77 136.21 56.53 136.78 55.91 137.06 C 55.92 136.61 55.94 135.71 55.95 135.26 Z"
     id="path186" />
  <path
     fill="#981030"
     d=" M 58.40 135.93 C 59.59 136.17 60.80 136.31 62.01 136.48 C 61.49 139.68 61.94 142.90 62.85 145.98 C 62.70 146.61 62.40 147.86 62.25 148.48 C 61.12 148.11 60.00 147.68 58.92 147.19 C 57.12 144.12 56.60 140.51 55.91 137.06 C 56.53 136.78 57.77 136.21 58.40 135.93 Z"
     id="path188" />
  <path
     fill="#e03048"
     d=" M 59.18 143.42 C 60.33 142.76 61.81 144.61 60.87 145.58 C 59.72 146.24 58.25 144.38 59.18 143.42 Z"
     id="path190" />
</svg>
