<?xml version="1.0" encoding="UTF-8" ?>
<!DOCTYPE svg PUBLIC "-//W3C//DTD SVG 1.1//EN" "http://www.w3.org/Graphics/SVG/1.1/DTD/svg11.dtd">
<svg width="70pt" height="69pt" viewBox="0 0 70 69" version="1.1" xmlns="http://www.w3.org/2000/svg">
<g id="#ffffffff">
</g>
<g id="#393c42ff">
<path fill="#393c42" opacity="1.00" d=" M 3.17 0.00 L 4.01 0.00 C 3.75 0.45 3.24 1.34 2.98 1.78 C 3.03 1.34 3.12 0.45 3.17 0.00 Z" />
</g>
<g id="#676973ff">
<path fill="#676973" opacity="1.00" d=" M 4.01 0.00 L 18.19 0.00 C 20.04 2.82 21.10 6.86 18.79 9.73 C 16.54 10.83 13.93 10.74 11.51 11.13 C 11.00 13.66 11.12 16.48 9.79 18.77 C 7.23 20.39 3.90 19.32 1.03 19.36 C 0.87 13.80 0.42 8.17 1.50 2.66 C 1.87 2.44 2.61 2.00 2.98 1.78 C 3.24 1.34 3.75 0.45 4.01 0.00 M 5.36 3.27 C 4.73 4.07 4.11 4.87 3.48 5.67 C 3.55 9.24 3.57 12.82 3.55 16.39 C 4.57 16.45 6.62 16.57 7.65 16.62 C 7.73 13.55 7.71 10.46 8.08 7.41 C 10.99 7.45 13.90 7.45 16.81 7.45 C 16.79 6.04 16.78 4.64 16.76 3.24 C 12.96 3.20 9.16 3.20 5.36 3.27 Z" />
</g>
<g id="#555964ff">
<path fill="#555964" opacity="1.00" d=" M 18.19 0.00 L 51.58 0.00 C 49.33 2.94 49.78 6.68 50.85 9.98 C 53.41 10.33 55.96 10.71 58.52 11.11 C 59.15 13.79 58.52 17.28 60.71 19.29 C 63.37 20.10 66.21 19.40 68.93 19.25 C 68.91 29.73 68.76 40.22 69.09 50.70 C 66.22 49.29 63.04 49.00 59.96 49.79 C 59.52 52.47 59.06 55.15 58.60 57.83 C 56.03 58.37 53.05 58.15 50.84 59.75 C 48.96 62.57 50.36 66.10 51.32 69.00 L 19.16 69.00 C 19.68 66.00 20.84 62.61 19.26 59.76 C 16.87 58.29 13.94 58.29 11.26 57.75 C 11.16 55.60 11.54 53.33 10.78 51.27 C 8.41 48.09 4.01 49.44 0.92 50.64 C 1.24 40.22 0.94 29.79 1.03 19.36 C 3.90 19.32 7.23 20.39 9.79 18.77 C 11.12 16.48 11.00 13.66 11.51 11.13 C 13.93 10.74 16.54 10.83 18.79 9.73 C 21.10 6.86 20.04 2.82 18.19 0.00 M 18.49 21.77 C 18.55 30.27 18.53 38.76 18.51 47.26 C 19.93 48.60 21.10 50.47 23.06 51.04 C 25.74 51.47 28.43 50.83 31.12 50.92 C 33.72 51.53 36.27 53.24 39.03 52.34 C 41.57 51.42 44.19 50.75 46.91 50.70 C 49.07 50.78 50.08 48.51 51.49 47.26 C 51.49 38.77 51.45 30.27 51.51 21.77 C 50.33 20.56 49.14 19.35 47.94 18.14 C 40.29 18.33 32.64 18.05 25.00 17.87 C 22.08 17.53 20.19 19.81 18.49 21.77 Z" />
</g>
<g id="#666973ff">
<path fill="#666973" opacity="1.00" d=" M 51.58 0.00 L 64.80 0.00 L 65.99 0.01 L 65.99 1.63 C 66.88 2.00 67.78 2.37 68.67 2.75 C 69.48 8.22 69.21 13.75 68.93 19.25 C 66.21 19.40 63.37 20.10 60.71 19.29 C 58.52 17.28 59.15 13.79 58.52 11.11 C 55.96 10.71 53.41 10.33 50.85 9.98 C 49.78 6.68 49.33 2.94 51.58 0.00 M 53.25 3.21 C 53.22 4.60 53.18 5.99 53.14 7.38 C 56.19 7.42 59.25 7.46 62.30 7.60 C 62.23 10.55 62.21 13.50 62.22 16.46 C 63.62 16.45 65.03 16.45 66.43 16.44 C 66.43 12.83 66.46 9.22 66.50 5.61 C 65.86 4.83 65.23 4.05 64.60 3.26 C 60.82 3.23 57.03 3.22 53.25 3.21 Z" />
</g>
<g id="#4e5051ff">
<path fill="#4e5051" opacity="1.00" d=" M 0.00 3.57 C 0.37 3.34 1.12 2.89 1.50 2.66 C 0.42 8.17 0.87 13.80 1.03 19.36 C 0.94 29.79 1.24 40.22 0.92 50.64 C 0.75 55.86 0.73 61.11 1.50 66.29 C 1.12 66.15 0.37 65.89 0.00 65.75 L 0.00 3.57 Z" />
</g>
<g id="#000304ff">
<path fill="#000304" opacity="1.00" d=" M 5.36 3.27 C 9.16 3.20 12.96 3.20 16.76 3.24 C 16.78 4.64 16.79 6.04 16.81 7.45 C 13.90 7.45 10.99 7.45 8.08 7.41 C 7.71 10.46 7.73 13.55 7.65 16.62 C 6.62 16.57 4.57 16.45 3.55 16.39 C 3.57 12.82 3.55 9.24 3.48 5.67 C 4.11 4.87 4.73 4.07 5.36 3.27 Z" />
<path fill="#000304" opacity="1.00" d=" M 53.25 3.21 C 57.03 3.22 60.82 3.23 64.60 3.26 C 65.23 4.05 65.86 4.83 66.50 5.61 C 66.46 9.22 66.43 12.83 66.43 16.44 C 65.03 16.45 63.62 16.45 62.22 16.46 C 62.21 13.50 62.23 10.55 62.30 7.60 C 59.25 7.46 56.19 7.42 53.14 7.38 C 53.18 5.99 53.22 4.60 53.25 3.21 Z" />
</g>
<g id="#505050ff">
<path fill="#505050" opacity="1.00" d=" M 68.67 2.75 L 70.00 3.21 L 70.00 65.67 C 69.63 65.82 68.88 66.13 68.51 66.28 C 69.41 61.13 69.34 55.89 69.09 50.70 C 68.76 40.22 68.91 29.73 68.93 19.25 C 69.21 13.75 69.48 8.22 68.67 2.75 Z" />
</g>
<g id="#9a9ca3ff">
<path fill="#9a9ca3" opacity="1.00" d=" M 18.49 21.77 C 20.19 19.81 22.08 17.53 25.00 17.87 C 32.64 18.05 40.29 18.33 47.94 18.14 C 49.14 19.35 50.33 20.56 51.51 21.77 C 51.45 30.27 51.49 38.77 51.49 47.26 C 50.08 48.51 49.07 50.78 46.91 50.70 C 44.19 50.75 41.57 51.42 39.03 52.34 C 36.27 53.24 33.72 51.53 31.12 50.92 C 28.43 50.83 25.74 51.47 23.06 51.04 C 21.10 50.47 19.93 48.60 18.51 47.26 C 18.53 38.76 18.55 30.27 18.49 21.77 M 23.23 22.55 C 22.76 30.53 23.29 38.51 23.22 46.49 C 26.85 46.51 30.48 46.43 34.10 46.56 C 35.41 47.81 37.11 47.97 38.83 47.80 C 40.73 45.36 44.22 46.81 46.84 46.45 C 46.82 38.48 46.85 30.51 46.82 22.54 C 38.96 22.48 31.09 22.50 23.23 22.55 Z" />
</g>
<g id="#fcfeffff">
<path fill="#fcfeff" opacity="1.00" d=" M 23.23 22.55 C 31.09 22.50 38.96 22.48 46.82 22.54 C 46.85 30.51 46.82 38.48 46.84 46.45 C 44.22 46.81 40.73 45.36 38.83 47.80 C 37.11 47.97 35.41 47.81 34.10 46.56 C 30.48 46.43 26.85 46.51 23.22 46.49 C 23.29 38.51 22.76 30.53 23.23 22.55 M 27.56 27.15 C 27.46 32.00 27.58 36.85 27.43 41.70 C 29.77 42.22 32.17 42.27 34.55 42.15 C 34.75 40.71 34.99 39.27 35.28 37.85 C 36.62 37.48 38.01 37.35 39.45 37.46 C 39.47 38.89 39.48 40.33 39.49 41.76 C 40.23 41.80 41.72 41.89 42.46 41.93 C 42.53 36.89 42.55 31.85 42.41 26.82 C 37.45 26.63 32.51 27.35 27.56 27.15 Z" />
</g>
<g id="#999aa1ff">
<path fill="#999aa1" opacity="1.00" d=" M 27.56 27.15 C 32.51 27.35 37.45 26.63 42.41 26.82 C 42.55 31.85 42.53 36.89 42.46 41.93 C 41.72 41.89 40.23 41.80 39.49 41.76 C 39.48 40.33 39.47 38.89 39.45 37.46 C 38.01 37.35 36.62 37.48 35.28 37.85 C 34.99 39.27 34.75 40.71 34.55 42.15 C 32.17 42.27 29.77 42.22 27.43 41.70 C 27.58 36.85 27.46 32.00 27.56 27.15 M 32.04 31.22 C 31.95 32.42 31.86 33.62 31.77 34.83 C 33.89 33.74 36.19 33.13 38.52 32.72 C 37.42 30.17 34.18 31.54 32.04 31.22 Z" />
</g>
<g id="#6d6f77ff">
<path fill="#6d6f77" opacity="1.00" d=" M 32.04 31.22 C 34.18 31.54 37.42 30.17 38.52 32.72 C 36.19 33.13 33.89 33.74 31.77 34.83 C 31.86 33.62 31.95 32.42 32.04 31.22 Z" />
</g>
<g id="#656974ff">
<path fill="#656974" opacity="1.00" d=" M 0.92 50.64 C 4.01 49.44 8.41 48.09 10.78 51.27 C 11.54 53.33 11.16 55.60 11.26 57.75 C 13.94 58.29 16.87 58.29 19.26 59.76 C 20.84 62.61 19.68 66.00 19.16 69.00 L 5.28 69.00 L 4.02 68.99 L 4.01 67.36 C 3.38 67.10 2.12 66.56 1.50 66.29 C 0.73 61.11 0.75 55.86 0.92 50.64 M 3.55 52.55 C 3.58 56.15 3.56 59.75 3.51 63.35 C 4.13 64.14 4.75 64.93 5.38 65.72 C 9.17 65.78 12.96 65.78 16.75 65.77 C 16.78 64.38 16.81 62.99 16.84 61.60 C 13.79 61.61 10.74 61.55 7.69 61.37 C 7.74 58.45 7.77 55.53 7.82 52.61 C 6.40 52.59 4.98 52.57 3.55 52.55 Z" />
</g>
<g id="#676974ff">
<path fill="#676974" opacity="1.00" d=" M 59.96 49.79 C 63.04 49.00 66.22 49.29 69.09 50.70 C 69.34 55.89 69.41 61.13 68.51 66.28 C 67.88 66.55 66.62 67.09 65.99 67.36 C 65.99 67.77 66.00 68.59 66.00 69.00 L 51.32 69.00 C 50.36 66.10 48.96 62.57 50.84 59.75 C 53.05 58.15 56.03 58.37 58.60 57.83 C 59.06 55.15 59.52 52.47 59.96 49.79 M 62.14 52.65 C 62.21 55.55 62.25 58.46 62.30 61.37 C 59.25 61.54 56.20 61.59 53.14 61.63 C 53.18 63.01 53.21 64.40 53.25 65.78 C 57.08 65.80 60.91 65.73 64.74 65.78 C 67.97 62.15 65.90 56.93 66.46 52.56 C 65.02 52.58 63.58 52.61 62.14 52.65 Z" />
</g>
<g id="#000303ff">
<path fill="#000303" opacity="1.00" d=" M 3.55 52.55 C 4.98 52.57 6.40 52.59 7.82 52.61 C 7.77 55.53 7.74 58.45 7.69 61.37 C 10.74 61.55 13.79 61.61 16.84 61.60 C 16.81 62.99 16.78 64.38 16.75 65.77 C 12.96 65.78 9.17 65.78 5.38 65.72 C 4.75 64.93 4.13 64.14 3.51 63.35 C 3.56 59.75 3.58 56.15 3.55 52.55 Z" />
</g>
<g id="#000403ff">
<path fill="#000403" opacity="1.00" d=" M 62.14 52.65 C 63.58 52.61 65.02 52.58 66.46 52.56 C 65.90 56.93 67.97 62.15 64.74 65.78 C 60.91 65.73 57.08 65.80 53.25 65.78 C 53.21 64.40 53.18 63.01 53.14 61.63 C 56.20 61.59 59.25 61.54 62.30 61.37 C 62.25 58.46 62.21 55.55 62.14 52.65 Z" />
</g>
</svg>
