<?xml version="1.0" encoding="UTF-8" ?>
<!DOCTYPE svg PUBLIC "-//W3C//DTD SVG 1.1//EN" "http://www.w3.org/Graphics/SVG/1.1/DTD/svg11.dtd">
<svg width="70pt" height="69pt" viewBox="0 0 70 69" version="1.1" xmlns="http://www.w3.org/2000/svg">
<g id="#ffffffff">
<path fill="#ffffff" opacity="1.00" d=" M 0.00 0.00 L 3.18 0.00 C 3.14 0.46 3.05 1.38 3.01 1.83 C 2.61 2.04 1.82 2.46 1.42 2.67 L 0.01 3.37 L 0.00 4.11 L 0.00 0.00 Z" />
<path fill="#ffffff" opacity="1.00" d=" M 64.95 0.00 L 70.00 0.00 L 70.00 3.30 L 68.71 2.73 C 67.81 2.35 66.90 1.99 65.98 1.65 L 66.00 0.01 L 64.95 0.00 Z" />
<path fill="#ffffff" opacity="1.00" d=" M 0.00 65.68 C 0.38 65.85 1.14 66.17 1.52 66.34 C 2.14 66.59 3.38 67.11 3.99 67.36 L 4.02 68.99 L 5.19 69.00 L 0.00 69.00 L 0.00 65.68 Z" />
<path fill="#ffffff" opacity="1.00" d=" M 68.44 66.29 C 68.83 66.08 69.61 65.66 70.00 65.46 L 70.00 69.00 L 65.99 69.00 C 66.00 68.62 66.02 67.87 66.02 67.49 C 66.63 67.19 67.83 66.59 68.44 66.29 Z" />
</g>
<g id="#393c42ff">
<path fill="#393c42" opacity="1.00" d=" M 3.18 0.00 L 4.01 0.00 C 3.76 0.46 3.26 1.38 3.01 1.83 C 3.05 1.38 3.14 0.46 3.18 0.00 Z" />
</g>
<g id="#676973ff">
<path fill="#676973" opacity="1.00" d=" M 4.01 0.00 L 18.19 0.00 C 20.14 2.82 21.05 6.83 18.83 9.77 C 16.56 10.85 13.94 10.75 11.50 11.13 C 10.86 13.81 11.35 17.20 9.24 19.26 C 6.56 20.07 3.71 19.47 0.96 19.36 C 0.82 13.80 0.52 8.19 1.42 2.67 C 1.82 2.46 2.61 2.04 3.01 1.83 C 3.26 1.38 3.76 0.46 4.01 0.00 M 5.24 3.21 C 2.14 6.91 4.03 12.07 3.56 16.47 C 4.98 16.46 6.39 16.44 7.81 16.44 C 7.67 13.43 7.75 10.41 8.06 7.41 C 11.00 7.46 13.95 7.45 16.90 7.37 C 16.84 5.99 16.79 4.61 16.74 3.23 C 12.90 3.21 9.07 3.24 5.24 3.21 Z" />
</g>
<g id="#555964ff">
<path fill="#555964" opacity="1.00" d=" M 18.19 0.00 L 51.74 0.00 C 49.47 2.69 49.16 6.85 51.20 9.75 C 53.44 10.85 56.07 10.68 58.50 11.05 C 59.15 13.73 58.40 17.33 60.72 19.27 C 63.38 20.08 66.22 19.41 68.94 19.25 C 68.90 29.70 68.75 40.16 69.08 50.61 C 66.30 49.80 62.83 48.10 60.25 50.24 C 58.98 52.53 59.06 55.30 58.56 57.82 C 55.95 58.36 53.04 58.25 50.76 59.76 C 49.29 62.69 50.37 66.04 51.17 69.00 L 19.13 69.00 C 19.66 65.97 20.77 62.57 19.28 59.66 C 16.79 58.32 13.89 58.24 11.17 57.74 C 10.91 55.28 12.23 51.87 9.75 50.22 C 7.06 48.34 3.70 49.67 0.92 50.61 C 1.26 40.19 0.97 29.78 0.96 19.36 C 3.71 19.47 6.56 20.07 9.24 19.26 C 11.35 17.20 10.86 13.81 11.50 11.13 C 13.94 10.75 16.56 10.85 18.83 9.77 C 21.05 6.83 20.14 2.82 18.19 0.00 M 18.47 21.79 C 18.57 30.28 18.54 38.77 18.49 47.25 C 19.91 48.59 21.10 50.38 23.01 51.05 C 26.77 51.42 30.70 50.16 34.26 51.93 C 38.19 53.77 42.00 50.66 46.00 50.78 C 48.54 51.07 49.96 48.87 51.51 47.28 C 51.48 38.77 51.44 30.26 51.53 21.75 C 50.34 20.56 49.24 19.24 47.83 18.30 C 44.95 17.55 41.94 18.17 39.01 18.16 C 33.66 18.47 28.29 17.32 22.98 18.17 C 20.94 18.49 19.88 20.52 18.47 21.79 Z" />
</g>
<g id="#666973ff">
<path fill="#666973" opacity="1.00" d=" M 51.74 0.00 L 64.95 0.00 L 66.00 0.01 L 65.98 1.65 C 66.90 1.99 67.81 2.35 68.71 2.73 C 69.48 8.21 69.21 13.75 68.94 19.25 C 66.22 19.41 63.38 20.08 60.72 19.27 C 58.40 17.33 59.15 13.73 58.50 11.05 C 56.07 10.68 53.44 10.85 51.20 9.75 C 49.16 6.85 49.47 2.69 51.74 0.00 M 53.23 3.21 C 53.22 4.61 53.21 6.02 53.20 7.43 C 56.23 7.41 59.27 7.46 62.29 7.61 C 62.24 10.54 62.21 13.47 62.18 16.40 C 63.59 16.42 65.01 16.44 66.43 16.46 C 66.44 12.86 66.45 9.25 66.50 5.65 C 65.87 4.85 65.25 4.06 64.62 3.27 C 60.83 3.23 57.03 3.22 53.23 3.21 Z" />
</g>
<g id="#4e5051ff">
<path fill="#4e5051" opacity="1.00" d=" M 0.00 4.11 L 0.01 3.37 L 1.42 2.67 C 0.52 8.19 0.82 13.80 0.96 19.36 C 0.97 29.78 1.26 40.19 0.92 50.61 C 0.77 55.85 0.71 61.14 1.52 66.34 C 1.14 66.17 0.38 65.85 0.00 65.68 L 0.00 4.11 Z" />
</g>
<g id="#000304ff">
<path fill="#000304" opacity="1.00" d=" M 5.24 3.21 C 9.07 3.24 12.90 3.21 16.74 3.23 C 16.79 4.61 16.84 5.99 16.90 7.37 C 13.95 7.45 11.00 7.46 8.06 7.41 C 7.75 10.41 7.67 13.43 7.81 16.44 C 6.39 16.44 4.98 16.46 3.56 16.47 C 4.03 12.07 2.14 6.91 5.24 3.21 Z" />
<path fill="#000304" opacity="1.00" d=" M 53.23 3.21 C 57.03 3.22 60.83 3.23 64.62 3.27 C 65.25 4.06 65.87 4.85 66.50 5.65 C 66.45 9.25 66.44 12.86 66.43 16.46 C 65.01 16.44 63.59 16.42 62.18 16.40 C 62.21 13.47 62.24 10.54 62.29 7.61 C 59.27 7.46 56.23 7.41 53.20 7.43 C 53.21 6.02 53.22 4.61 53.23 3.21 Z" />
</g>
<g id="#505050ff">
<path fill="#505050" opacity="1.00" d=" M 68.71 2.73 L 70.00 3.30 L 70.00 65.46 C 69.61 65.66 68.83 66.08 68.44 66.29 C 69.50 61.13 69.28 55.84 69.08 50.61 C 68.75 40.16 68.90 29.70 68.94 19.25 C 69.21 13.75 69.48 8.21 68.71 2.73 Z" />
</g>
<g id="#9a9ca3ff">
<path fill="#9a9ca3" opacity="1.00" d=" M 18.47 21.79 C 19.88 20.52 20.94 18.49 22.98 18.17 C 28.29 17.32 33.66 18.47 39.01 18.16 C 41.94 18.17 44.95 17.55 47.83 18.30 C 49.24 19.24 50.34 20.56 51.53 21.75 C 51.44 30.26 51.48 38.77 51.51 47.28 C 49.96 48.87 48.54 51.07 46.00 50.78 C 42.00 50.66 38.19 53.77 34.26 51.93 C 30.70 50.16 26.77 51.42 23.01 51.05 C 21.10 50.38 19.91 48.59 18.49 47.25 C 18.54 38.77 18.57 30.28 18.47 21.79 M 23.19 22.62 C 22.65 30.58 23.37 38.53 23.22 46.49 C 26.88 46.50 30.55 46.49 34.21 46.45 C 34.63 46.82 35.47 47.56 35.89 47.93 C 36.66 47.89 38.20 47.82 38.97 47.78 C 39.28 47.45 39.90 46.78 40.21 46.45 C 42.52 46.45 44.84 46.44 47.15 46.42 C 46.58 38.47 46.93 30.50 46.82 22.54 C 38.94 22.52 31.06 22.40 23.19 22.62 Z" />
</g>
<g id="#fcfeffff">
<path fill="#fcfeff" opacity="1.00" d=" M 23.19 22.62 C 31.06 22.40 38.94 22.52 46.82 22.54 C 46.93 30.50 46.58 38.47 47.15 46.42 C 44.84 46.44 42.52 46.45 40.21 46.45 C 39.90 46.78 39.28 47.45 38.97 47.78 C 38.20 47.82 36.66 47.89 35.89 47.93 C 35.47 47.56 34.63 46.82 34.21 46.45 C 30.55 46.49 26.88 46.50 23.22 46.49 C 23.37 38.53 22.65 30.58 23.19 22.62 M 27.53 26.98 C 27.50 32.03 27.48 37.08 27.57 42.13 C 29.93 42.15 32.28 42.16 34.64 42.15 C 34.82 40.63 35.00 39.10 35.18 37.58 C 36.61 37.55 38.03 37.53 39.45 37.50 C 39.46 38.92 39.47 40.33 39.48 41.74 C 40.23 41.79 41.71 41.89 42.45 41.94 C 42.53 36.91 42.54 31.88 42.41 26.84 C 37.45 26.80 32.49 26.71 27.53 26.98 Z" />
</g>
<g id="#999aa1ff">
<path fill="#999aa1" opacity="1.00" d=" M 27.53 26.98 C 32.49 26.71 37.45 26.80 42.41 26.84 C 42.54 31.88 42.53 36.91 42.45 41.94 C 41.71 41.89 40.23 41.79 39.48 41.74 C 39.47 40.33 39.46 38.92 39.45 37.50 C 38.03 37.53 36.61 37.55 35.18 37.58 C 35.00 39.10 34.82 40.63 34.64 42.15 C 32.28 42.16 29.93 42.15 27.57 42.13 C 27.48 37.08 27.50 32.03 27.53 26.98 M 32.08 31.16 C 31.98 32.37 31.88 33.57 31.77 34.77 C 33.97 33.82 36.28 33.18 38.60 32.61 C 37.19 30.39 34.25 31.44 32.08 31.16 Z" />
</g>
<g id="#6d6f77ff">
<path fill="#6d6f77" opacity="1.00" d=" M 32.08 31.16 C 34.25 31.44 37.19 30.39 38.60 32.61 C 36.28 33.18 33.97 33.82 31.77 34.77 C 31.88 33.57 31.98 32.37 32.08 31.16 Z" />
</g>
<g id="#656974ff">
<path fill="#656974" opacity="1.00" d=" M 0.92 50.61 C 3.70 49.67 7.06 48.34 9.75 50.22 C 12.23 51.87 10.91 55.28 11.17 57.74 C 13.89 58.24 16.79 58.32 19.28 59.66 C 20.77 62.57 19.66 65.97 19.13 69.00 L 5.19 69.00 L 4.02 68.99 L 3.99 67.36 C 3.38 67.11 2.14 66.59 1.52 66.34 C 0.71 61.14 0.77 55.85 0.92 50.61 M 3.56 52.55 C 3.57 56.14 3.57 59.73 3.50 63.32 C 4.13 64.13 4.75 64.93 5.38 65.73 C 9.17 65.78 12.97 65.77 16.77 65.77 C 16.78 64.38 16.79 62.98 16.80 61.58 C 13.77 61.58 10.74 61.55 7.71 61.42 C 7.74 58.49 7.77 55.55 7.82 52.61 C 6.40 52.59 4.98 52.57 3.56 52.55 Z" />
</g>
<g id="#676974ff">
<path fill="#676974" opacity="1.00" d=" M 60.25 50.24 C 62.83 48.10 66.30 49.80 69.08 50.61 C 69.28 55.84 69.50 61.13 68.44 66.29 C 67.83 66.59 66.63 67.19 66.02 67.49 C 66.02 67.87 66.00 68.62 65.99 69.00 L 51.17 69.00 C 50.37 66.04 49.29 62.69 50.76 59.76 C 53.04 58.25 55.95 58.36 58.56 57.82 C 59.06 55.30 58.98 52.53 60.25 50.24 M 62.16 52.64 C 62.22 55.45 62.39 58.27 62.12 61.07 C 59.38 62.11 56.14 61.35 53.21 61.56 C 53.21 62.97 53.22 64.38 53.23 65.78 C 57.04 65.78 60.86 65.77 64.68 65.73 C 65.29 64.92 65.90 64.12 66.51 63.31 C 66.46 59.73 66.46 56.14 66.46 52.56 C 65.03 52.58 63.59 52.61 62.16 52.64 Z" />
</g>
<g id="#000303ff">
<path fill="#000303" opacity="1.00" d=" M 3.56 52.55 C 4.98 52.57 6.40 52.59 7.82 52.61 C 7.77 55.55 7.74 58.49 7.71 61.42 C 10.74 61.55 13.77 61.58 16.80 61.58 C 16.79 62.98 16.78 64.38 16.77 65.77 C 12.97 65.77 9.17 65.78 5.38 65.73 C 4.75 64.93 4.13 64.13 3.50 63.32 C 3.57 59.73 3.57 56.14 3.56 52.55 Z" />
</g>
<g id="#000403ff">
<path fill="#000403" opacity="1.00" d=" M 62.16 52.64 C 63.59 52.61 65.03 52.58 66.46 52.56 C 66.46 56.14 66.46 59.73 66.51 63.31 C 65.90 64.12 65.29 64.92 64.68 65.73 C 60.86 65.77 57.04 65.78 53.23 65.78 C 53.22 64.38 53.21 62.97 53.21 61.56 C 56.14 61.35 59.38 62.11 62.12 61.07 C 62.39 58.27 62.22 55.45 62.16 52.64 Z" />
</g>
</svg>
