<?xml version="1.0" encoding="UTF-8" ?>
<!DOCTYPE svg PUBLIC "-//W3C//DTD SVG 1.1//EN" "http://www.w3.org/Graphics/SVG/1.1/DTD/svg11.dtd">
<svg width="68pt" height="70pt" viewBox="0 0 68 70" version="1.1" xmlns="http://www.w3.org/2000/svg">
<g id="#ffffffff">
</g>
<g id="#000002ff">
<path fill="#000002" opacity="1.00" d=" M 2.70 1.45 C 18.21 0.76 33.77 1.35 49.29 1.01 C 39.05 2.14 28.74 1.56 18.46 1.64 C 13.21 1.61 7.95 1.77 2.70 1.45 Z" />
<path fill="#000002" opacity="1.00" d=" M 2.54 53.50 C 3.96 53.53 5.37 53.55 6.79 53.55 C 6.83 56.54 6.98 59.53 7.18 62.51 C 10.09 62.50 12.99 62.52 15.89 62.56 C 15.85 63.98 15.82 65.41 15.78 66.84 C 11.32 67.18 6.50 67.91 2.45 65.49 C 2.53 61.49 2.51 57.50 2.54 53.50 Z" />
</g>
<g id="#4b505dff">
<path fill="#4b505d" opacity="1.00" d=" M 49.29 1.01 C 54.61 1.12 59.98 0.61 65.27 1.35 C 59.82 1.75 54.34 1.74 48.89 2.13 C 49.05 4.82 49.04 7.56 49.70 10.20 C 52.03 11.57 54.82 11.71 57.42 12.27 C 58.01 15.00 58.02 18.08 59.81 20.38 C 62.55 20.69 65.29 20.23 68.00 19.86 L 68.00 51.40 C 65.38 50.77 62.57 49.90 59.89 50.72 C 57.83 52.79 58.09 56.06 57.40 58.72 C 54.82 59.31 51.99 59.41 49.69 60.84 C 48.54 63.60 49.43 66.74 49.55 69.63 C 39.18 69.60 28.81 69.59 18.44 69.63 C 18.55 66.75 19.42 63.62 18.29 60.87 C 16.04 59.35 13.16 59.34 10.60 58.71 C 9.91 56.05 10.07 52.84 8.11 50.72 C 5.42 49.88 2.60 50.78 0.00 51.52 L 0.00 20.01 C 2.69 20.27 5.43 20.71 8.12 20.28 C 10.11 18.15 9.92 14.94 10.59 12.27 C 13.15 11.63 16.06 11.67 18.28 10.13 C 19.40 7.47 18.56 4.43 18.46 1.64 C 28.74 1.56 39.05 2.14 49.29 1.01 M 21.37 19.41 C 19.05 20.12 17.72 22.64 17.66 24.96 C 17.33 30.64 17.67 36.33 17.51 42.02 C 17.60 45.07 17.18 48.93 20.04 50.94 C 22.40 52.37 25.34 51.97 27.98 52.13 C 33.93 51.93 39.92 52.48 45.85 51.76 C 48.58 51.44 50.34 48.64 50.36 46.05 C 50.68 40.37 50.35 34.67 50.50 28.99 C 50.38 26.12 50.80 22.68 48.47 20.53 C 46.66 18.44 43.66 19.38 41.26 19.28 C 34.64 19.89 27.97 18.62 21.37 19.41 Z" />
</g>
<g id="#92969bff">
<path fill="#92969b" opacity="1.00" d=" M 0.00 4.55 C 0.86 3.48 1.76 2.44 2.70 1.45 C 7.95 1.77 13.21 1.61 18.46 1.64 C 18.56 4.43 19.40 7.47 18.28 10.13 C 16.06 11.67 13.15 11.63 10.59 12.27 C 9.92 14.94 10.11 18.15 8.12 20.28 C 5.43 20.71 2.69 20.27 0.00 20.01 L 0.00 4.55 M 3.74 4.22 C 1.89 8.40 2.55 13.05 2.55 17.48 C 3.96 17.47 5.37 17.46 6.79 17.45 C 6.83 14.45 7.01 11.46 7.21 8.47 C 10.10 8.48 13.00 8.47 15.89 8.45 C 15.85 7.01 15.82 5.57 15.79 4.13 C 11.77 4.18 7.75 4.17 3.74 4.22 Z" />
</g>
<g id="#93969bff">
<path fill="#93969b" opacity="1.00" d=" M 48.89 2.13 C 54.34 1.74 59.82 1.75 65.27 1.35 C 66.21 2.34 67.12 3.35 68.00 4.40 L 68.00 19.86 C 65.29 20.23 62.55 20.69 59.81 20.38 C 58.02 18.08 58.01 15.00 57.42 12.27 C 54.82 11.71 52.03 11.57 49.70 10.20 C 49.04 7.56 49.05 4.82 48.89 2.13 M 52.21 4.14 C 52.18 5.58 52.15 7.01 52.12 8.45 C 54.99 8.48 57.87 8.49 60.75 8.46 C 60.88 11.48 61.09 14.50 61.24 17.52 C 62.67 17.47 64.09 17.43 65.52 17.38 C 64.80 13.16 67.27 7.58 63.62 4.38 C 59.83 3.91 56.01 4.25 52.21 4.14 Z" />
</g>
<g id="#000001ff">
<path fill="#000001" opacity="1.00" d=" M 3.74 4.22 C 7.75 4.17 11.77 4.18 15.79 4.13 C 15.82 5.57 15.85 7.01 15.89 8.45 C 13.00 8.47 10.10 8.48 7.21 8.47 C 7.01 11.46 6.83 14.45 6.79 17.45 C 5.37 17.46 3.96 17.47 2.55 17.48 C 2.55 13.05 1.89 8.40 3.74 4.22 Z" />
<path fill="#000001" opacity="1.00" d=" M 61.21 53.54 C 62.62 53.54 64.03 53.53 65.44 53.51 C 65.43 57.95 66.10 62.59 64.26 66.78 C 60.24 66.83 56.23 66.82 52.22 66.86 C 52.18 65.43 52.14 64.01 52.11 62.58 C 55.00 62.54 57.90 62.52 60.80 62.52 C 61.00 59.53 61.17 56.54 61.21 53.54 Z" />
<path fill="#000001" opacity="1.00" d=" M 3.07 69.84 C 8.19 69.55 13.32 69.76 18.44 69.63 C 28.81 69.59 39.18 69.60 49.55 69.63 C 54.65 69.74 59.77 69.53 64.87 69.83 L 65.48 70.00 L 2.47 70.00 L 3.07 69.84 Z" />
</g>
<g id="#000102ff">
<path fill="#000102" opacity="1.00" d=" M 52.21 4.14 C 56.01 4.25 59.83 3.91 63.62 4.38 C 67.27 7.58 64.80 13.16 65.52 17.38 C 64.09 17.43 62.67 17.47 61.24 17.52 C 61.09 14.50 60.88 11.48 60.75 8.46 C 57.87 8.49 54.99 8.48 52.12 8.45 C 52.15 7.01 52.18 5.58 52.21 4.14 Z" />
</g>
<g id="#8a8c93ff">
<path fill="#8a8c93" opacity="1.00" d=" M 21.37 19.41 C 27.97 18.62 34.64 19.89 41.26 19.28 C 43.66 19.38 46.66 18.44 48.47 20.53 C 50.80 22.68 50.38 26.12 50.50 28.99 C 50.35 34.67 50.68 40.37 50.36 46.05 C 50.34 48.64 48.58 51.44 45.85 51.76 C 39.92 52.48 33.93 51.93 27.98 52.13 C 25.34 51.97 22.40 52.37 20.04 50.94 C 17.18 48.93 17.60 45.07 17.51 42.02 C 17.67 36.33 17.33 30.64 17.66 24.96 C 17.72 22.64 19.05 20.12 21.37 19.41 M 31.20 23.46 C 30.74 29.92 30.76 36.41 30.85 42.89 C 29.37 42.85 27.90 42.82 26.43 42.79 C 26.51 36.37 26.50 29.95 26.44 23.53 C 24.99 23.57 23.55 23.60 22.11 23.62 C 22.30 31.54 22.20 39.47 21.79 47.38 C 29.83 47.55 37.87 47.53 45.90 47.40 C 45.80 39.47 45.78 31.55 45.89 23.63 C 44.45 23.60 43.01 23.57 41.57 23.53 C 41.50 29.98 41.50 36.42 41.57 42.87 C 39.52 42.87 37.48 42.86 35.43 42.85 C 35.49 36.38 35.55 29.90 35.32 23.43 C 33.95 23.44 32.57 23.45 31.20 23.46 Z" />
</g>
<g id="#fdfdffff">
<path fill="#fdfdff" opacity="1.00" d=" M 31.20 23.46 C 32.57 23.45 33.95 23.44 35.32 23.43 C 35.55 29.90 35.49 36.38 35.43 42.85 C 37.48 42.86 39.52 42.87 41.57 42.87 C 41.50 36.42 41.50 29.98 41.57 23.53 C 43.01 23.57 44.45 23.60 45.89 23.63 C 45.78 31.55 45.80 39.47 45.90 47.40 C 37.87 47.53 29.83 47.55 21.79 47.38 C 22.20 39.47 22.30 31.54 22.11 23.62 C 23.55 23.60 24.99 23.57 26.44 23.53 C 26.50 29.95 26.51 36.37 26.43 42.79 C 27.90 42.82 29.37 42.85 30.85 42.89 C 30.76 36.41 30.74 29.92 31.20 23.46 Z" />
</g>
<g id="#93959cff">
<path fill="#93959c" opacity="1.00" d=" M 0.00 51.52 C 2.60 50.78 5.42 49.88 8.11 50.72 C 10.07 52.84 9.91 56.05 10.60 58.71 C 13.16 59.34 16.04 59.35 18.29 60.87 C 19.42 63.62 18.55 66.75 18.44 69.63 C 13.32 69.76 8.19 69.55 3.07 69.84 C 2.73 68.54 1.46 67.15 0.00 67.52 L 0.00 51.52 M 2.54 53.50 C 2.51 57.50 2.53 61.49 2.45 65.49 C 6.50 67.91 11.32 67.18 15.78 66.84 C 15.82 65.41 15.85 63.98 15.89 62.56 C 12.99 62.52 10.09 62.50 7.18 62.51 C 6.98 59.53 6.83 56.54 6.79 53.55 C 5.37 53.55 3.96 53.53 2.54 53.50 Z" />
</g>
<g id="#949599ff">
<path fill="#949599" opacity="1.00" d=" M 59.89 50.72 C 62.57 49.90 65.38 50.77 68.00 51.40 L 68.00 67.71 C 66.57 67.13 65.15 68.49 64.87 69.83 C 59.77 69.53 54.65 69.74 49.55 69.63 C 49.43 66.74 48.54 63.60 49.69 60.84 C 51.99 59.41 54.82 59.31 57.40 58.72 C 58.09 56.06 57.83 52.79 59.89 50.72 M 61.21 53.54 C 61.17 56.54 61.00 59.53 60.80 62.52 C 57.90 62.52 55.00 62.54 52.11 62.58 C 52.14 64.01 52.18 65.43 52.22 66.86 C 56.23 66.82 60.24 66.83 64.26 66.78 C 66.10 62.59 65.43 57.95 65.44 53.51 C 64.03 53.53 62.62 53.54 61.21 53.54 Z" />
</g>
</svg>
